<?xml version="1.0" encoding="UTF-8"?>
<svg xmlns="http://www.w3.org/2000/svg" xmlns:xlink="http://www.w3.org/1999/xlink" width="576pt" height="360pt" viewBox="0 0 576 360">
<defs>
<g>
<g id="glyph-0-0">
<path d="M 0.730469 0 L 0.730469 -6.871094 L 1.664062 -6.871094 L 5.273438 -1.476562 L 5.273438 -6.871094 L 6.144531 -6.871094 L 6.144531 0 L 5.210938 0 L 1.601562 -5.398438 L 1.601562 0 Z M 0.730469 0 "/>
</g>
<g id="glyph-0-1">
<path d="M 0.320312 -2.488281 C 0.320312 -3.410156 0.574219 -4.09375 1.085938 -4.539062 C 1.515625 -4.90625 2.039062 -5.089844 2.652344 -5.089844 C 3.335938 -5.089844 3.898438 -4.867188 4.332031 -4.417969 C 4.765625 -3.96875 4.984375 -3.351562 4.984375 -2.558594 C 4.984375 -1.917969 4.886719 -1.414062 4.695312 -1.046875 C 4.503906 -0.679688 4.222656 -0.394531 3.855469 -0.191406 C 3.488281 0.0117188 3.085938 0.113281 2.652344 0.113281 C 1.957031 0.113281 1.394531 -0.109375 0.964844 -0.558594 C 0.535156 -1.003906 0.320312 -1.648438 0.320312 -2.488281 M 1.1875 -2.488281 C 1.1875 -1.851562 1.324219 -1.375 1.601562 -1.058594 C 1.882812 -0.738281 2.230469 -0.582031 2.652344 -0.582031 C 3.070312 -0.582031 3.421875 -0.742188 3.699219 -1.058594 C 3.976562 -1.378906 4.117188 -1.863281 4.117188 -2.515625 C 4.117188 -3.132812 3.976562 -3.597656 3.695312 -3.917969 C 3.417969 -4.234375 3.070312 -4.390625 2.652344 -4.390625 C 2.230469 -4.390625 1.882812 -4.234375 1.601562 -3.917969 C 1.324219 -3.601562 1.1875 -3.125 1.1875 -2.488281 Z M 1.1875 -2.488281 "/>
</g>
<g id="glyph-0-2">
<path d="M 0.625 0 L 0.625 -4.976562 L 1.382812 -4.976562 L 1.382812 -4.222656 C 1.578125 -4.578125 1.753906 -4.808594 1.917969 -4.921875 C 2.082031 -5.035156 2.265625 -5.089844 2.460938 -5.089844 C 2.746094 -5.089844 3.035156 -5 3.328125 -4.820312 L 3.039062 -4.035156 C 2.832031 -4.15625 2.625 -4.21875 2.417969 -4.21875 C 2.234375 -4.21875 2.070312 -4.164062 1.921875 -4.050781 C 1.773438 -3.941406 1.671875 -3.789062 1.609375 -3.589844 C 1.515625 -3.289062 1.46875 -2.960938 1.46875 -2.605469 L 1.46875 0 Z M 0.625 0 "/>
</g>
<g id="glyph-0-3">
<path d="M 2.476562 -0.753906 L 2.597656 -0.0078125 C 2.359375 0.0390625 2.148438 0.0664062 1.960938 0.0664062 C 1.652344 0.0664062 1.414062 0.015625 1.246094 -0.078125 C 1.078125 -0.175781 0.960938 -0.304688 0.890625 -0.460938 C 0.820312 -0.621094 0.789062 -0.953125 0.789062 -1.457031 L 0.789062 -4.320312 L 0.167969 -4.320312 L 0.167969 -4.976562 L 0.789062 -4.976562 L 0.789062 -6.210938 L 1.625 -6.71875 L 1.625 -4.976562 L 2.476562 -4.976562 L 2.476562 -4.320312 L 1.625 -4.320312 L 1.625 -1.410156 C 1.625 -1.171875 1.640625 -1.015625 1.671875 -0.945312 C 1.699219 -0.878906 1.75 -0.824219 1.816406 -0.78125 C 1.882812 -0.742188 1.980469 -0.722656 2.105469 -0.722656 C 2.199219 -0.722656 2.320312 -0.734375 2.476562 -0.753906 Z M 2.476562 -0.753906 "/>
</g>
<g id="glyph-0-4">
<path d="M 0.632812 0 L 0.632812 -6.871094 L 1.476562 -6.871094 L 1.476562 -4.40625 C 1.871094 -4.863281 2.367188 -5.089844 2.96875 -5.089844 C 3.335938 -5.089844 3.65625 -5.019531 3.929688 -4.871094 C 4.199219 -4.726562 4.394531 -4.527344 4.511719 -4.269531 C 4.628906 -4.015625 4.6875 -3.640625 4.6875 -3.15625 L 4.6875 0 L 3.84375 0 L 3.84375 -3.15625 C 3.84375 -3.578125 3.753906 -3.882812 3.570312 -4.074219 C 3.386719 -4.269531 3.128906 -4.363281 2.792969 -4.363281 C 2.542969 -4.363281 2.308594 -4.300781 2.089844 -4.167969 C 1.867188 -4.039062 1.710938 -3.863281 1.617188 -3.640625 C 1.523438 -3.421875 1.476562 -3.113281 1.476562 -2.722656 L 1.476562 0 Z M 0.632812 0 "/>
</g>
<g id="glyph-0-5">
</g>
<g id="glyph-0-6">
<path d="M 0.894531 0 L 0.894531 -6.871094 L 1.804688 -6.871094 L 1.804688 0 Z M 0.894531 0 "/>
</g>
<g id="glyph-0-7">
<path d="M 0.296875 -1.484375 L 1.128906 -1.617188 C 1.175781 -1.28125 1.308594 -1.027344 1.519531 -0.847656 C 1.734375 -0.671875 2.035156 -0.582031 2.417969 -0.582031 C 2.804688 -0.582031 3.09375 -0.660156 3.28125 -0.816406 C 3.46875 -0.976562 3.5625 -1.160156 3.5625 -1.375 C 3.5625 -1.5625 3.480469 -1.714844 3.3125 -1.824219 C 3.199219 -1.898438 2.910156 -1.992188 2.453125 -2.109375 C 1.832031 -2.265625 1.402344 -2.402344 1.164062 -2.515625 C 0.925781 -2.628906 0.746094 -2.785156 0.621094 -2.988281 C 0.496094 -3.191406 0.4375 -3.414062 0.4375 -3.65625 C 0.4375 -3.878906 0.488281 -4.082031 0.589844 -4.273438 C 0.691406 -4.460938 0.828125 -4.617188 1.003906 -4.742188 C 1.132812 -4.839844 1.3125 -4.921875 1.539062 -4.988281 C 1.765625 -5.058594 2.007812 -5.089844 2.269531 -5.089844 C 2.660156 -5.089844 3.003906 -5.035156 3.296875 -4.921875 C 3.59375 -4.808594 3.8125 -4.65625 3.953125 -4.464844 C 4.09375 -4.273438 4.1875 -4.015625 4.242188 -3.695312 L 3.417969 -3.582031 C 3.378906 -3.835938 3.269531 -4.039062 3.089844 -4.179688 C 2.910156 -4.324219 2.65625 -4.398438 2.328125 -4.398438 C 1.941406 -4.398438 1.664062 -4.332031 1.5 -4.203125 C 1.335938 -4.078125 1.25 -3.925781 1.25 -3.753906 C 1.25 -3.644531 1.285156 -3.546875 1.355469 -3.460938 C 1.421875 -3.367188 1.53125 -3.292969 1.679688 -3.234375 C 1.761719 -3.203125 2.011719 -3.132812 2.421875 -3.019531 C 3.019531 -2.859375 3.4375 -2.730469 3.671875 -2.628906 C 3.910156 -2.527344 4.09375 -2.378906 4.226562 -2.183594 C 4.363281 -1.992188 4.429688 -1.75 4.429688 -1.460938 C 4.429688 -1.179688 4.347656 -0.917969 4.183594 -0.667969 C 4.019531 -0.417969 3.78125 -0.226562 3.472656 -0.0898438 C 3.164062 0.0429688 2.8125 0.113281 2.421875 0.113281 C 1.777344 0.113281 1.285156 -0.0234375 0.945312 -0.289062 C 0.605469 -0.558594 0.390625 -0.957031 0.296875 -1.484375 Z M 0.296875 -1.484375 "/>
</g>
<g id="glyph-0-8">
<path d="M 0.613281 0 L 0.613281 -6.871094 L 1.457031 -6.871094 L 1.457031 0 Z M 0.613281 0 "/>
</g>
<g id="glyph-0-9">
<path d="M 3.882812 -0.613281 C 3.570312 -0.347656 3.269531 -0.160156 2.980469 -0.0507812 C 2.691406 0.0585938 2.378906 0.113281 2.046875 0.113281 C 1.5 0.113281 1.082031 -0.0195312 0.789062 -0.289062 C 0.492188 -0.554688 0.347656 -0.898438 0.347656 -1.3125 C 0.347656 -1.554688 0.402344 -1.777344 0.511719 -1.980469 C 0.625 -2.183594 0.769531 -2.34375 0.949219 -2.464844 C 1.128906 -2.585938 1.332031 -2.679688 1.554688 -2.742188 C 1.722656 -2.785156 1.972656 -2.828125 2.304688 -2.867188 C 2.988281 -2.949219 3.488281 -3.046875 3.8125 -3.160156 C 3.8125 -3.273438 3.816406 -3.347656 3.816406 -3.378906 C 3.816406 -3.722656 3.734375 -3.964844 3.578125 -4.105469 C 3.359375 -4.296875 3.039062 -4.390625 2.617188 -4.390625 C 2.21875 -4.390625 1.925781 -4.324219 1.738281 -4.183594 C 1.546875 -4.042969 1.40625 -3.796875 1.316406 -3.445312 L 0.492188 -3.558594 C 0.566406 -3.910156 0.691406 -4.195312 0.863281 -4.414062 C 1.035156 -4.628906 1.28125 -4.796875 1.609375 -4.914062 C 1.933594 -5.03125 2.308594 -5.089844 2.738281 -5.089844 C 3.164062 -5.089844 3.507812 -5.039062 3.773438 -4.941406 C 4.039062 -4.839844 4.234375 -4.714844 4.359375 -4.5625 C 4.484375 -4.410156 4.570312 -4.21875 4.621094 -3.988281 C 4.648438 -3.84375 4.664062 -3.585938 4.664062 -3.210938 L 4.664062 -2.085938 C 4.664062 -1.300781 4.683594 -0.804688 4.71875 -0.597656 C 4.753906 -0.390625 4.824219 -0.191406 4.929688 0 L 4.050781 0 C 3.960938 -0.175781 3.90625 -0.378906 3.882812 -0.613281 M 3.8125 -2.5 C 3.503906 -2.375 3.046875 -2.265625 2.433594 -2.179688 C 2.085938 -2.128906 1.839844 -2.074219 1.695312 -2.011719 C 1.554688 -1.949219 1.441406 -1.855469 1.363281 -1.738281 C 1.285156 -1.617188 1.246094 -1.484375 1.246094 -1.335938 C 1.246094 -1.109375 1.332031 -0.921875 1.503906 -0.773438 C 1.671875 -0.625 1.921875 -0.546875 2.25 -0.546875 C 2.574219 -0.546875 2.863281 -0.621094 3.117188 -0.761719 C 3.371094 -0.902344 3.554688 -1.097656 3.675781 -1.34375 C 3.765625 -1.535156 3.8125 -1.816406 3.8125 -2.1875 Z M 3.8125 -2.5 "/>
</g>
<g id="glyph-0-10">
<path d="M 0.632812 0 L 0.632812 -4.976562 L 1.390625 -4.976562 L 1.390625 -4.269531 C 1.757812 -4.816406 2.285156 -5.089844 2.976562 -5.089844 C 3.277344 -5.089844 3.550781 -5.035156 3.804688 -4.929688 C 4.054688 -4.820312 4.242188 -4.679688 4.367188 -4.503906 C 4.492188 -4.328125 4.582031 -4.121094 4.632812 -3.882812 C 4.664062 -3.726562 4.679688 -3.453125 4.679688 -3.0625 L 4.679688 0 L 3.835938 0 L 3.835938 -3.027344 C 3.835938 -3.371094 3.800781 -3.628906 3.734375 -3.800781 C 3.671875 -3.96875 3.554688 -4.105469 3.386719 -4.207031 C 3.21875 -4.308594 3.023438 -4.359375 2.796875 -4.359375 C 2.4375 -4.359375 2.128906 -4.246094 1.867188 -4.015625 C 1.605469 -3.789062 1.476562 -3.355469 1.476562 -2.71875 L 1.476562 0 Z M 0.632812 0 "/>
</g>
<g id="glyph-0-11">
<path d="M 3.863281 0 L 3.863281 -0.628906 C 3.546875 -0.132812 3.082031 0.113281 2.46875 0.113281 C 2.074219 0.113281 1.707031 0.00390625 1.375 -0.214844 C 1.042969 -0.433594 0.785156 -0.738281 0.601562 -1.132812 C 0.417969 -1.523438 0.328125 -1.976562 0.328125 -2.484375 C 0.328125 -2.980469 0.410156 -3.433594 0.578125 -3.835938 C 0.742188 -4.242188 0.992188 -4.550781 1.320312 -4.765625 C 1.652344 -4.984375 2.023438 -5.089844 2.433594 -5.089844 C 2.734375 -5.089844 3 -5.027344 3.234375 -4.902344 C 3.46875 -4.773438 3.660156 -4.609375 3.804688 -4.40625 L 3.804688 -6.871094 L 4.644531 -6.871094 L 4.644531 0 L 3.863281 0 M 1.195312 -2.484375 C 1.195312 -1.847656 1.328125 -1.371094 1.597656 -1.054688 C 1.867188 -0.738281 2.183594 -0.582031 2.550781 -0.582031 C 2.917969 -0.582031 3.230469 -0.730469 3.488281 -1.035156 C 3.746094 -1.335938 3.875 -1.796875 3.875 -2.414062 C 3.875 -3.09375 3.746094 -3.59375 3.484375 -3.914062 C 3.21875 -4.234375 2.898438 -4.390625 2.511719 -4.390625 C 2.136719 -4.390625 1.824219 -4.238281 1.574219 -3.933594 C 1.320312 -3.625 1.195312 -3.144531 1.195312 -2.484375 Z M 1.195312 -2.484375 "/>
</g>
<g id="glyph-0-12">
<path d="M 0.429688 -2.207031 L 1.289062 -2.28125 C 1.328125 -1.9375 1.425781 -1.65625 1.574219 -1.4375 C 1.722656 -1.214844 1.953125 -1.039062 2.265625 -0.902344 C 2.578125 -0.765625 2.929688 -0.699219 3.320312 -0.699219 C 3.664062 -0.699219 3.972656 -0.75 4.238281 -0.851562 C 4.503906 -0.957031 4.699219 -1.097656 4.832031 -1.277344 C 4.960938 -1.457031 5.023438 -1.652344 5.023438 -1.867188 C 5.023438 -2.082031 4.960938 -2.269531 4.835938 -2.429688 C 4.710938 -2.589844 4.507812 -2.726562 4.21875 -2.835938 C 4.035156 -2.90625 3.625 -3.019531 2.996094 -3.171875 C 2.363281 -3.324219 1.921875 -3.464844 1.667969 -3.601562 C 1.339844 -3.773438 1.097656 -3.984375 0.933594 -4.238281 C 0.773438 -4.496094 0.695312 -4.78125 0.695312 -5.09375 C 0.695312 -5.441406 0.792969 -5.765625 0.988281 -6.066406 C 1.1875 -6.371094 1.472656 -6.597656 1.851562 -6.753906 C 2.230469 -6.910156 2.648438 -6.988281 3.113281 -6.988281 C 3.621094 -6.988281 4.070312 -6.90625 4.460938 -6.742188 C 4.847656 -6.578125 5.148438 -6.335938 5.359375 -6.019531 C 5.566406 -5.699219 5.679688 -5.339844 5.695312 -4.9375 L 4.824219 -4.871094 C 4.777344 -5.304688 4.617188 -5.632812 4.347656 -5.855469 C 4.078125 -6.078125 3.679688 -6.1875 3.148438 -6.1875 C 2.601562 -6.1875 2.199219 -6.085938 1.949219 -5.886719 C 1.695312 -5.683594 1.570312 -5.441406 1.570312 -5.15625 C 1.570312 -4.910156 1.660156 -4.707031 1.835938 -4.546875 C 2.011719 -4.386719 2.46875 -4.222656 3.207031 -4.058594 C 3.949219 -3.890625 4.453125 -3.742188 4.730469 -3.617188 C 5.128906 -3.433594 5.425781 -3.199219 5.617188 -2.917969 C 5.804688 -2.636719 5.902344 -2.308594 5.902344 -1.941406 C 5.902344 -1.574219 5.796875 -1.230469 5.585938 -0.90625 C 5.378906 -0.582031 5.078125 -0.332031 4.683594 -0.152344 C 4.292969 0.0273438 3.851562 0.117188 3.359375 0.117188 C 2.738281 0.117188 2.21875 0.0273438 1.796875 -0.15625 C 1.378906 -0.335938 1.046875 -0.609375 0.808594 -0.972656 C 0.570312 -1.335938 0.445312 -1.75 0.429688 -2.207031 Z M 0.429688 -2.207031 "/>
</g>
<g id="glyph-0-13">
<path d="M 3.894531 0 L 3.894531 -0.730469 C 3.507812 -0.167969 2.980469 0.113281 2.316406 0.113281 C 2.023438 0.113281 1.746094 0.0546875 1.492188 -0.0546875 C 1.238281 -0.167969 1.050781 -0.308594 0.925781 -0.480469 C 0.800781 -0.652344 0.714844 -0.859375 0.664062 -1.105469 C 0.632812 -1.273438 0.613281 -1.535156 0.613281 -1.894531 L 0.613281 -4.976562 L 1.457031 -4.976562 L 1.457031 -2.21875 C 1.457031 -1.777344 1.476562 -1.480469 1.507812 -1.328125 C 1.5625 -1.105469 1.675781 -0.929688 1.847656 -0.804688 C 2.019531 -0.675781 2.230469 -0.613281 2.484375 -0.613281 C 2.738281 -0.613281 2.976562 -0.679688 3.195312 -0.808594 C 3.417969 -0.9375 3.574219 -1.113281 3.667969 -1.339844 C 3.761719 -1.5625 3.804688 -1.886719 3.804688 -2.3125 L 3.804688 -4.976562 L 4.648438 -4.976562 L 4.648438 0 Z M 3.894531 0 "/>
</g>
<g id="glyph-0-14">
<path d="M 0.398438 -3.390625 C 0.398438 -4.203125 0.480469 -4.855469 0.648438 -5.351562 C 0.816406 -5.847656 1.066406 -6.226562 1.394531 -6.496094 C 1.722656 -6.765625 2.140625 -6.898438 2.640625 -6.898438 C 3.007812 -6.898438 3.332031 -6.824219 3.609375 -6.675781 C 3.886719 -6.527344 4.117188 -6.316406 4.296875 -6.035156 C 4.480469 -5.753906 4.621094 -5.414062 4.726562 -5.011719 C 4.828125 -4.613281 4.878906 -4.070312 4.878906 -3.390625 C 4.878906 -2.582031 4.796875 -1.933594 4.632812 -1.4375 C 4.464844 -0.941406 4.21875 -0.558594 3.886719 -0.289062 C 3.558594 -0.0195312 3.140625 0.117188 2.640625 0.117188 C 1.976562 0.117188 1.457031 -0.121094 1.078125 -0.59375 C 0.625 -1.167969 0.398438 -2.097656 0.398438 -3.390625 M 1.265625 -3.390625 C 1.265625 -2.261719 1.398438 -1.511719 1.660156 -1.136719 C 1.925781 -0.761719 2.25 -0.578125 2.640625 -0.578125 C 3.027344 -0.578125 3.351562 -0.765625 3.617188 -1.140625 C 3.878906 -1.515625 4.011719 -2.265625 4.011719 -3.390625 C 4.011719 -4.519531 3.878906 -5.273438 3.617188 -5.644531 C 3.351562 -6.015625 3.023438 -6.203125 2.628906 -6.203125 C 2.242188 -6.203125 1.933594 -6.039062 1.703125 -5.710938 C 1.410156 -5.289062 1.265625 -4.515625 1.265625 -3.390625 Z M 1.265625 -3.390625 "/>
</g>
<g id="glyph-0-15">
<path d="M 0.558594 -5.222656 C 0.558594 -5.710938 0.679688 -6.128906 0.929688 -6.472656 C 1.175781 -6.816406 1.53125 -6.988281 2 -6.988281 C 2.433594 -6.988281 2.789062 -6.835938 3.074219 -6.527344 C 3.355469 -6.21875 3.496094 -5.765625 3.496094 -5.171875 C 3.496094 -4.589844 3.355469 -4.140625 3.066406 -3.828125 C 2.78125 -3.511719 2.429688 -3.355469 2.011719 -3.355469 C 1.59375 -3.355469 1.25 -3.511719 0.972656 -3.820312 C 0.695312 -4.128906 0.558594 -4.597656 0.558594 -5.222656 M 2.023438 -6.40625 C 1.816406 -6.40625 1.640625 -6.316406 1.503906 -6.136719 C 1.363281 -5.953125 1.292969 -5.621094 1.292969 -5.136719 C 1.292969 -4.695312 1.363281 -4.386719 1.503906 -4.207031 C 1.644531 -4.027344 1.820312 -3.9375 2.023438 -3.9375 C 2.238281 -3.9375 2.414062 -4.027344 2.550781 -4.210938 C 2.691406 -4.390625 2.761719 -4.722656 2.761719 -5.203125 C 2.761719 -5.648438 2.691406 -5.957031 2.550781 -6.136719 C 2.410156 -6.316406 2.234375 -6.40625 2.023438 -6.40625 M 2.03125 0.253906 L 5.789062 -6.988281 L 6.472656 -6.988281 L 2.726562 0.253906 L 2.03125 0.253906 M 5 -1.613281 C 5 -2.105469 5.125 -2.523438 5.371094 -2.867188 C 5.617188 -3.207031 5.976562 -3.378906 6.449219 -3.378906 C 6.882812 -3.378906 7.238281 -3.226562 7.519531 -2.917969 C 7.804688 -2.609375 7.945312 -2.15625 7.945312 -1.5625 C 7.945312 -0.980469 7.800781 -0.53125 7.515625 -0.21875 C 7.230469 0.0976562 6.875 0.253906 6.453125 0.253906 C 6.039062 0.253906 5.691406 0.0976562 5.417969 -0.214844 C 5.140625 -0.523438 5 -0.992188 5 -1.613281 M 6.472656 -2.796875 C 6.261719 -2.796875 6.085938 -2.707031 5.945312 -2.527344 C 5.808594 -2.34375 5.738281 -2.011719 5.738281 -1.527344 C 5.738281 -1.089844 5.808594 -0.78125 5.949219 -0.601562 C 6.089844 -0.417969 6.261719 -0.328125 6.46875 -0.328125 C 6.683594 -0.328125 6.863281 -0.417969 7 -0.601562 C 7.140625 -0.78125 7.210938 -1.113281 7.210938 -1.59375 C 7.210938 -2.039062 7.140625 -2.347656 7 -2.527344 C 6.859375 -2.707031 6.683594 -2.796875 6.472656 -2.796875 Z M 6.472656 -2.796875 "/>
</g>
<g id="glyph-0-16">
<path d="M 4.832031 -0.8125 L 4.832031 0 L 0.289062 0 C 0.285156 -0.203125 0.316406 -0.398438 0.390625 -0.585938 C 0.503906 -0.894531 0.691406 -1.199219 0.945312 -1.5 C 1.199219 -1.800781 1.566406 -2.148438 2.046875 -2.539062 C 2.796875 -3.152344 3.300781 -3.636719 3.5625 -3.996094 C 3.824219 -4.355469 3.957031 -4.691406 3.957031 -5.011719 C 3.957031 -5.34375 3.835938 -5.628906 3.597656 -5.855469 C 3.359375 -6.085938 3.046875 -6.203125 2.664062 -6.203125 C 2.257812 -6.203125 1.929688 -6.078125 1.6875 -5.835938 C 1.445312 -5.59375 1.320312 -5.253906 1.316406 -4.824219 L 0.449219 -4.914062 C 0.507812 -5.558594 0.734375 -6.050781 1.121094 -6.390625 C 1.507812 -6.730469 2.027344 -6.898438 2.679688 -6.898438 C 3.339844 -6.898438 3.863281 -6.71875 4.246094 -6.351562 C 4.632812 -5.984375 4.824219 -5.53125 4.824219 -4.992188 C 4.824219 -4.71875 4.765625 -4.445312 4.65625 -4.179688 C 4.542969 -3.914062 4.355469 -3.636719 4.09375 -3.34375 C 3.832031 -3.046875 3.398438 -2.644531 2.792969 -2.132812 C 2.289062 -1.707031 1.960938 -1.417969 1.820312 -1.269531 C 1.675781 -1.117188 1.554688 -0.964844 1.460938 -0.8125 Z M 4.832031 -0.8125 "/>
</g>
<g id="glyph-0-17">
<path d="M 0.398438 -1.800781 L 1.285156 -1.875 C 1.351562 -1.445312 1.503906 -1.121094 1.742188 -0.902344 C 1.980469 -0.683594 2.269531 -0.578125 2.605469 -0.578125 C 3.011719 -0.578125 3.355469 -0.730469 3.636719 -1.035156 C 3.917969 -1.34375 4.058594 -1.75 4.058594 -2.253906 C 4.058594 -2.734375 3.925781 -3.117188 3.652344 -3.394531 C 3.382812 -3.671875 3.03125 -3.8125 2.59375 -3.8125 C 2.320312 -3.8125 2.074219 -3.75 1.855469 -3.625 C 1.636719 -3.503906 1.464844 -3.34375 1.339844 -3.144531 L 0.546875 -3.25 L 1.214844 -6.777344 L 4.632812 -6.777344 L 4.632812 -5.972656 L 1.890625 -5.972656 L 1.519531 -4.125 C 1.929688 -4.414062 2.363281 -4.554688 2.816406 -4.554688 C 3.417969 -4.554688 3.921875 -4.347656 4.335938 -3.933594 C 4.75 -3.515625 4.953125 -2.984375 4.953125 -2.328125 C 4.953125 -1.707031 4.773438 -1.171875 4.410156 -0.71875 C 3.96875 -0.160156 3.367188 0.117188 2.605469 0.117188 C 1.980469 0.117188 1.472656 -0.0585938 1.074219 -0.40625 C 0.679688 -0.757812 0.453125 -1.222656 0.398438 -1.800781 Z M 0.398438 -1.800781 "/>
</g>
<g id="glyph-0-18">
<path d="M 0.453125 -5.972656 L 0.453125 -6.78125 L 4.902344 -6.78125 L 4.902344 -6.125 C 4.464844 -5.660156 4.03125 -5.042969 3.601562 -4.269531 C 3.171875 -3.5 2.839844 -2.703125 2.605469 -1.890625 C 2.4375 -1.3125 2.328125 -0.683594 2.28125 0 L 1.414062 0 C 1.425781 -0.539062 1.53125 -1.195312 1.734375 -1.960938 C 1.9375 -2.726562 2.230469 -3.464844 2.609375 -4.175781 C 2.988281 -4.886719 3.390625 -5.484375 3.820312 -5.972656 Z M 0.453125 -5.972656 "/>
</g>
<g id="glyph-0-19">
<path d="M 3.578125 0 L 2.734375 0 L 2.734375 -5.375 C 2.53125 -5.183594 2.261719 -4.988281 1.933594 -4.796875 C 1.605469 -4.601562 1.308594 -4.457031 1.046875 -4.359375 L 1.046875 -5.175781 C 1.515625 -5.398438 1.929688 -5.664062 2.28125 -5.980469 C 2.636719 -6.296875 2.886719 -6.601562 3.03125 -6.898438 L 3.578125 -6.898438 Z M 3.578125 0 "/>
</g>
<g id="glyph-0-20">
<path d="M 3.882812 -1.824219 L 4.710938 -1.714844 C 4.621094 -1.144531 4.386719 -0.695312 4.015625 -0.371094 C 3.640625 -0.0507812 3.183594 0.113281 2.640625 0.113281 C 1.957031 0.113281 1.410156 -0.109375 0.996094 -0.554688 C 0.582031 -1 0.375 -1.640625 0.375 -2.46875 C 0.375 -3.007812 0.464844 -3.476562 0.640625 -3.882812 C 0.820312 -4.285156 1.089844 -4.585938 1.457031 -4.789062 C 1.820312 -4.988281 2.214844 -5.089844 2.644531 -5.089844 C 3.183594 -5.089844 3.625 -4.953125 3.96875 -4.679688 C 4.3125 -4.40625 4.535156 -4.019531 4.632812 -3.515625 L 3.8125 -3.390625 C 3.734375 -3.722656 3.59375 -3.976562 3.394531 -4.144531 C 3.199219 -4.3125 2.957031 -4.398438 2.675781 -4.398438 C 2.25 -4.398438 1.90625 -4.246094 1.640625 -3.941406 C 1.375 -3.636719 1.242188 -3.152344 1.242188 -2.492188 C 1.242188 -1.824219 1.371094 -1.339844 1.625 -1.035156 C 1.882812 -0.734375 2.21875 -0.582031 2.628906 -0.582031 C 2.960938 -0.582031 3.238281 -0.683594 3.460938 -0.886719 C 3.679688 -1.089844 3.820312 -1.402344 3.882812 -1.824219 Z M 3.882812 -1.824219 "/>
</g>
<g id="glyph-0-21">
<path d="M 0.476562 0.414062 L 1.296875 0.535156 C 1.332031 0.789062 1.429688 0.972656 1.585938 1.085938 C 1.792969 1.242188 2.078125 1.320312 2.441406 1.320312 C 2.832031 1.320312 3.132812 1.242188 3.347656 1.085938 C 3.558594 0.929688 3.703125 0.710938 3.777344 0.429688 C 3.820312 0.257812 3.84375 -0.101562 3.839844 -0.652344 C 3.46875 -0.21875 3.011719 0 2.460938 0 C 1.777344 0 1.246094 -0.246094 0.871094 -0.742188 C 0.496094 -1.234375 0.308594 -1.828125 0.308594 -2.515625 C 0.308594 -2.992188 0.394531 -3.429688 0.566406 -3.832031 C 0.738281 -4.234375 0.988281 -4.542969 1.316406 -4.761719 C 1.640625 -4.980469 2.023438 -5.089844 2.464844 -5.089844 C 3.054688 -5.089844 3.539062 -4.851562 3.917969 -4.378906 L 3.917969 -4.976562 L 4.695312 -4.976562 L 4.695312 -0.675781 C 4.695312 0.101562 4.617188 0.648438 4.460938 0.972656 C 4.300781 1.296875 4.050781 1.550781 3.710938 1.738281 C 3.367188 1.925781 2.945312 2.019531 2.445312 2.019531 C 1.851562 2.019531 1.375 1.886719 1.007812 1.621094 C 0.640625 1.351562 0.464844 0.949219 0.476562 0.414062 M 1.175781 -2.578125 C 1.175781 -1.925781 1.304688 -1.449219 1.566406 -1.148438 C 1.824219 -0.847656 2.148438 -0.699219 2.539062 -0.699219 C 2.929688 -0.699219 3.253906 -0.847656 3.515625 -1.144531 C 3.777344 -1.445312 3.910156 -1.914062 3.910156 -2.550781 C 3.910156 -3.160156 3.773438 -3.617188 3.503906 -3.929688 C 3.234375 -4.238281 2.90625 -4.390625 2.527344 -4.390625 C 2.152344 -4.390625 1.832031 -4.238281 1.570312 -3.933594 C 1.308594 -3.628906 1.175781 -3.179688 1.175781 -2.578125 Z M 1.175781 -2.578125 "/>
</g>
<g id="glyph-0-22">
<path d="M -0.144531 1.90625 L -0.144531 1.296875 L 5.445312 1.296875 L 5.445312 1.90625 Z M -0.144531 1.90625 "/>
</g>
<g id="glyph-0-23">
<path d="M 0.636719 -5.902344 L 0.636719 -6.871094 L 1.480469 -6.871094 L 1.480469 -5.902344 L 0.636719 -5.902344 M 0.636719 0 L 0.636719 -4.976562 L 1.480469 -4.976562 L 1.480469 0 Z M 0.636719 0 "/>
</g>
<g id="glyph-0-24">
<path d="M 4.039062 -1.601562 L 4.914062 -1.496094 C 4.773438 -0.984375 4.519531 -0.589844 4.148438 -0.308594 C 3.777344 -0.0273438 3.300781 0.113281 2.722656 0.113281 C 1.996094 0.113281 1.417969 -0.113281 0.992188 -0.558594 C 0.566406 -1.007812 0.351562 -1.636719 0.351562 -2.445312 C 0.351562 -3.285156 0.566406 -3.933594 1 -4.398438 C 1.429688 -4.859375 1.988281 -5.089844 2.675781 -5.089844 C 3.34375 -5.089844 3.886719 -4.863281 4.308594 -4.410156 C 4.730469 -3.957031 4.941406 -3.320312 4.941406 -2.5 C 4.941406 -2.449219 4.9375 -2.375 4.9375 -2.273438 L 1.222656 -2.273438 C 1.253906 -1.726562 1.410156 -1.308594 1.6875 -1.015625 C 1.964844 -0.726562 2.3125 -0.582031 2.726562 -0.582031 C 3.039062 -0.582031 3.300781 -0.664062 3.519531 -0.824219 C 3.738281 -0.988281 3.914062 -1.246094 4.039062 -1.601562 M 1.269531 -2.96875 L 4.050781 -2.96875 C 4.011719 -3.386719 3.90625 -3.699219 3.730469 -3.910156 C 3.460938 -4.234375 3.113281 -4.398438 2.6875 -4.398438 C 2.296875 -4.398438 1.972656 -4.265625 1.707031 -4.007812 C 1.445312 -3.75 1.296875 -3.402344 1.269531 -2.96875 Z M 1.269531 -2.96875 "/>
</g>
<g id="glyph-1-0">
<path d="M 0.878906 0 L 0.878906 -8.589844 L 4.101562 -8.589844 C 4.757812 -8.589844 5.285156 -8.503906 5.679688 -8.328125 C 6.078125 -8.15625 6.386719 -7.886719 6.613281 -7.527344 C 6.835938 -7.164062 6.949219 -6.785156 6.949219 -6.390625 C 6.949219 -6.023438 6.851562 -5.679688 6.648438 -5.355469 C 6.453125 -5.03125 6.148438 -4.769531 5.75 -4.570312 C 6.265625 -4.417969 6.667969 -4.15625 6.945312 -3.789062 C 7.226562 -3.421875 7.367188 -2.988281 7.367188 -2.492188 C 7.367188 -2.085938 7.28125 -1.714844 7.109375 -1.367188 C 6.941406 -1.023438 6.730469 -0.757812 6.480469 -0.570312 C 6.230469 -0.382812 5.917969 -0.238281 5.539062 -0.144531 C 5.164062 -0.046875 4.699219 0 4.15625 0 L 0.878906 0 M 2.015625 -4.980469 L 3.875 -4.980469 C 4.375 -4.980469 4.738281 -5.011719 4.957031 -5.078125 C 5.246094 -5.164062 5.464844 -5.308594 5.609375 -5.507812 C 5.757812 -5.707031 5.828125 -5.957031 5.828125 -6.257812 C 5.828125 -6.542969 5.761719 -6.792969 5.625 -7.011719 C 5.488281 -7.226562 5.292969 -7.375 5.039062 -7.457031 C 4.785156 -7.535156 4.347656 -7.578125 3.734375 -7.578125 L 2.015625 -7.578125 L 2.015625 -4.980469 M 2.015625 -1.015625 L 4.15625 -1.015625 C 4.519531 -1.015625 4.777344 -1.027344 4.929688 -1.054688 C 5.1875 -1.101562 5.40625 -1.179688 5.585938 -1.289062 C 5.757812 -1.398438 5.902344 -1.558594 6.015625 -1.765625 C 6.128906 -1.976562 6.1875 -2.214844 6.1875 -2.492188 C 6.1875 -2.808594 6.105469 -3.089844 5.941406 -3.324219 C 5.777344 -3.5625 5.550781 -3.726562 5.257812 -3.824219 C 4.96875 -3.917969 4.546875 -3.96875 4 -3.96875 L 2.015625 -3.96875 Z M 2.015625 -1.015625 "/>
</g>
<g id="glyph-1-1">
<path d="M 5.050781 -2.003906 L 6.140625 -1.867188 C 5.96875 -1.230469 5.648438 -0.738281 5.1875 -0.386719 C 4.71875 -0.0351562 4.125 0.140625 3.40625 0.140625 C 2.492188 0.140625 1.773438 -0.140625 1.238281 -0.699219 C 0.707031 -1.261719 0.4375 -2.046875 0.4375 -3.058594 C 0.4375 -4.105469 0.710938 -4.917969 1.25 -5.496094 C 1.789062 -6.074219 2.484375 -6.363281 3.34375 -6.363281 C 4.179688 -6.363281 4.859375 -6.078125 5.382812 -5.515625 C 5.914062 -4.945312 6.175781 -4.148438 6.175781 -3.125 C 6.175781 -3.058594 6.171875 -2.964844 6.171875 -2.84375 L 1.53125 -2.84375 C 1.566406 -2.15625 1.761719 -1.632812 2.109375 -1.273438 C 2.457031 -0.90625 2.890625 -0.726562 3.410156 -0.726562 C 3.796875 -0.726562 4.125 -0.828125 4.398438 -1.03125 C 4.671875 -1.234375 4.890625 -1.558594 5.050781 -2.003906 M 1.585938 -3.710938 L 5.0625 -3.710938 C 5.015625 -4.230469 4.882812 -4.625 4.664062 -4.886719 C 4.328125 -5.292969 3.890625 -5.496094 3.359375 -5.496094 C 2.871094 -5.496094 2.464844 -5.332031 2.136719 -5.007812 C 1.804688 -4.683594 1.625 -4.25 1.585938 -3.710938 Z M 1.585938 -3.710938 "/>
</g>
<g id="glyph-1-2">
<path d="M 3.09375 -0.945312 L 3.246094 -0.0117188 C 2.949219 0.0507812 2.683594 0.0820312 2.449219 0.0820312 C 2.066406 0.0820312 1.769531 0.0195312 1.558594 -0.101562 C 1.347656 -0.21875 1.199219 -0.378906 1.113281 -0.578125 C 1.027344 -0.773438 0.984375 -1.1875 0.984375 -1.820312 L 0.984375 -5.402344 L 0.210938 -5.402344 L 0.210938 -6.222656 L 0.984375 -6.222656 L 0.984375 -7.765625 L 2.03125 -8.398438 L 2.03125 -6.222656 L 3.09375 -6.222656 L 3.09375 -5.402344 L 2.03125 -5.402344 L 2.03125 -1.765625 C 2.03125 -1.460938 2.050781 -1.269531 2.089844 -1.183594 C 2.125 -1.097656 2.1875 -1.027344 2.269531 -0.976562 C 2.355469 -0.925781 2.472656 -0.902344 2.632812 -0.902344 C 2.75 -0.902344 2.902344 -0.914062 3.09375 -0.945312 Z M 3.09375 -0.945312 "/>
</g>
<g id="glyph-1-3">
<path d="M 1.9375 0 L 0.0351562 -6.222656 L 1.125 -6.222656 L 2.117188 -2.632812 L 2.484375 -1.296875 C 2.5 -1.359375 2.609375 -1.789062 2.804688 -2.578125 L 3.796875 -6.222656 L 4.882812 -6.222656 L 5.8125 -2.613281 L 6.125 -1.421875 L 6.480469 -2.625 L 7.546875 -6.222656 L 8.570312 -6.222656 L 6.625 0 L 5.53125 0 L 4.539062 -3.726562 L 4.300781 -4.789062 L 3.039062 0 Z M 1.9375 0 "/>
</g>
<g id="glyph-1-4">
<path d="M 0.789062 0 L 0.789062 -6.222656 L 1.742188 -6.222656 L 1.742188 -5.335938 C 2.195312 -6.019531 2.855469 -6.363281 3.71875 -6.363281 C 4.09375 -6.363281 4.441406 -6.296875 4.753906 -6.160156 C 5.070312 -6.027344 5.304688 -5.847656 5.460938 -5.632812 C 5.617188 -5.410156 5.726562 -5.152344 5.789062 -4.851562 C 5.828125 -4.65625 5.847656 -4.3125 5.847656 -3.828125 L 5.847656 0 L 4.792969 0 L 4.792969 -3.785156 C 4.792969 -4.214844 4.75 -4.535156 4.671875 -4.75 C 4.585938 -4.960938 4.441406 -5.132812 4.234375 -5.257812 C 4.023438 -5.386719 3.78125 -5.449219 3.5 -5.449219 C 3.046875 -5.449219 2.660156 -5.304688 2.335938 -5.023438 C 2.007812 -4.734375 1.84375 -4.195312 1.84375 -3.398438 L 1.84375 0 Z M 0.789062 0 "/>
</g>
<g id="glyph-1-5">
<path d="M 0.382812 -2.578125 L 0.382812 -3.640625 L 3.621094 -3.640625 L 3.621094 -2.578125 Z M 0.382812 -2.578125 "/>
</g>
<g id="glyph-1-6">
<path d="M 4.851562 -2.28125 L 5.890625 -2.144531 C 5.773438 -1.429688 5.484375 -0.871094 5.019531 -0.464844 C 4.550781 -0.0625 3.976562 0.140625 3.296875 0.140625 C 2.445312 0.140625 1.761719 -0.136719 1.246094 -0.695312 C 0.726562 -1.25 0.46875 -2.046875 0.46875 -3.085938 C 0.46875 -3.757812 0.578125 -4.347656 0.804688 -4.851562 C 1.023438 -5.355469 1.363281 -5.734375 1.820312 -5.984375 C 2.273438 -6.238281 2.769531 -6.363281 3.304688 -6.363281 C 3.980469 -6.363281 4.53125 -6.191406 4.960938 -5.851562 C 5.390625 -5.507812 5.667969 -5.023438 5.789062 -4.394531 L 4.765625 -4.234375 C 4.664062 -4.652344 4.492188 -4.96875 4.246094 -5.179688 C 3.996094 -5.390625 3.695312 -5.496094 3.34375 -5.496094 C 2.8125 -5.496094 2.382812 -5.304688 2.050781 -4.925781 C 1.71875 -4.542969 1.554688 -3.941406 1.554688 -3.117188 C 1.554688 -2.28125 1.710938 -1.671875 2.03125 -1.296875 C 2.351562 -0.917969 2.769531 -0.726562 3.289062 -0.726562 C 3.699219 -0.726562 4.046875 -0.851562 4.324219 -1.109375 C 4.601562 -1.359375 4.777344 -1.75 4.851562 -2.28125 Z M 4.851562 -2.28125 "/>
</g>
<g id="glyph-1-7">
<path d="M 0.765625 0 L 0.765625 -8.589844 L 1.820312 -8.589844 L 1.820312 0 Z M 0.765625 0 "/>
</g>
<g id="glyph-1-8">
<path d="M 4.867188 0 L 4.867188 -0.914062 C 4.382812 -0.210938 3.726562 0.140625 2.894531 0.140625 C 2.527344 0.140625 2.183594 0.0703125 1.867188 -0.0703125 C 1.546875 -0.210938 1.3125 -0.386719 1.15625 -0.601562 C 1.003906 -0.8125 0.894531 -1.074219 0.832031 -1.382812 C 0.789062 -1.589844 0.765625 -1.917969 0.765625 -2.367188 L 0.765625 -6.222656 L 1.820312 -6.222656 L 1.820312 -2.773438 C 1.820312 -2.21875 1.84375 -1.847656 1.886719 -1.65625 C 1.953125 -1.378906 2.09375 -1.164062 2.308594 -1.003906 C 2.523438 -0.847656 2.789062 -0.765625 3.105469 -0.765625 C 3.421875 -0.765625 3.71875 -0.847656 3.996094 -1.011719 C 4.273438 -1.171875 4.46875 -1.394531 4.585938 -1.671875 C 4.699219 -1.953125 4.757812 -2.355469 4.757812 -2.890625 L 4.757812 -6.222656 L 5.8125 -6.222656 L 5.8125 0 Z M 4.867188 0 "/>
</g>
<g id="glyph-1-9">
<path d="M 0.367188 -1.859375 L 1.414062 -2.023438 C 1.46875 -1.601562 1.632812 -1.28125 1.902344 -1.0625 C 2.167969 -0.835938 2.542969 -0.726562 3.023438 -0.726562 C 3.507812 -0.726562 3.867188 -0.824219 4.101562 -1.023438 C 4.335938 -1.21875 4.453125 -1.449219 4.453125 -1.71875 C 4.453125 -1.953125 4.347656 -2.140625 4.140625 -2.28125 C 3.996094 -2.375 3.640625 -2.492188 3.0625 -2.636719 C 2.289062 -2.832031 1.753906 -3 1.457031 -3.144531 C 1.15625 -3.285156 0.929688 -3.484375 0.777344 -3.734375 C 0.621094 -3.988281 0.546875 -4.265625 0.546875 -4.570312 C 0.546875 -4.847656 0.609375 -5.105469 0.734375 -5.339844 C 0.863281 -5.578125 1.035156 -5.773438 1.253906 -5.929688 C 1.417969 -6.050781 1.640625 -6.152344 1.925781 -6.238281 C 2.207031 -6.320312 2.511719 -6.363281 2.835938 -6.363281 C 3.324219 -6.363281 3.753906 -6.292969 4.121094 -6.152344 C 4.492188 -6.011719 4.761719 -5.820312 4.9375 -5.582031 C 5.113281 -5.339844 5.234375 -5.019531 5.304688 -4.617188 L 4.273438 -4.476562 C 4.226562 -4.796875 4.089844 -5.046875 3.863281 -5.226562 C 3.640625 -5.40625 3.320312 -5.496094 2.914062 -5.496094 C 2.425781 -5.496094 2.082031 -5.414062 1.875 -5.257812 C 1.667969 -5.09375 1.5625 -4.90625 1.5625 -4.695312 C 1.5625 -4.554688 1.605469 -4.433594 1.695312 -4.324219 C 1.777344 -4.210938 1.914062 -4.117188 2.097656 -4.042969 C 2.203125 -4.003906 2.515625 -3.914062 3.03125 -3.773438 C 3.773438 -3.574219 4.296875 -3.410156 4.589844 -3.285156 C 4.886719 -3.15625 5.117188 -2.972656 5.285156 -2.730469 C 5.453125 -2.488281 5.535156 -2.1875 5.539062 -1.828125 C 5.535156 -1.476562 5.433594 -1.144531 5.230469 -0.835938 C 5.023438 -0.523438 4.726562 -0.285156 4.34375 -0.113281 C 3.953125 0.0546875 3.515625 0.140625 3.03125 0.140625 C 2.21875 0.140625 1.605469 -0.0273438 1.179688 -0.363281 C 0.757812 -0.699219 0.484375 -1.199219 0.367188 -1.859375 Z M 0.367188 -1.859375 "/>
</g>
<g id="glyph-1-10">
<path d="M 0.78125 0 L 0.78125 -6.222656 L 1.726562 -6.222656 L 1.726562 -5.28125 C 1.96875 -5.71875 2.195312 -6.011719 2.398438 -6.152344 C 2.605469 -6.292969 2.828125 -6.363281 3.078125 -6.363281 C 3.429688 -6.363281 3.792969 -6.25 4.160156 -6.023438 L 3.796875 -5.046875 C 3.539062 -5.195312 3.28125 -5.273438 3.023438 -5.273438 C 2.792969 -5.273438 2.585938 -5.203125 2.402344 -5.066406 C 2.21875 -4.925781 2.085938 -4.734375 2.007812 -4.488281 C 1.890625 -4.113281 1.835938 -3.703125 1.835938 -3.257812 L 1.835938 0 Z M 0.78125 0 "/>
</g>
<g id="glyph-1-11">
</g>
<g id="glyph-1-12">
<path d="M 2.519531 0 L 0.152344 -6.222656 L 1.265625 -6.222656 L 2.601562 -2.496094 C 2.746094 -2.09375 2.878906 -1.675781 3 -1.242188 C 3.09375 -1.570312 3.222656 -1.964844 3.390625 -2.425781 L 4.773438 -6.222656 L 5.859375 -6.222656 L 3.503906 0 Z M 2.519531 0 "/>
</g>
<g id="glyph-1-13">
<path d="M 4.851562 -0.765625 C 4.460938 -0.433594 4.085938 -0.199219 3.722656 -0.0625 C 3.363281 0.0703125 2.972656 0.140625 2.5625 0.140625 C 1.875 0.140625 1.351562 -0.0273438 0.984375 -0.359375 C 0.617188 -0.695312 0.433594 -1.121094 0.433594 -1.640625 C 0.433594 -1.945312 0.503906 -2.222656 0.640625 -2.476562 C 0.78125 -2.726562 0.960938 -2.929688 1.1875 -3.082031 C 1.410156 -3.234375 1.664062 -3.347656 1.945312 -3.429688 C 2.152344 -3.480469 2.464844 -3.535156 2.882812 -3.585938 C 3.734375 -3.6875 4.359375 -3.808594 4.765625 -3.949219 C 4.765625 -4.09375 4.769531 -4.183594 4.769531 -4.226562 C 4.769531 -4.652344 4.671875 -4.957031 4.46875 -5.132812 C 4.203125 -5.371094 3.800781 -5.492188 3.269531 -5.492188 C 2.773438 -5.492188 2.40625 -5.402344 2.171875 -5.230469 C 1.933594 -5.054688 1.757812 -4.746094 1.648438 -4.304688 L 0.617188 -4.445312 C 0.707031 -4.886719 0.863281 -5.246094 1.078125 -5.515625 C 1.292969 -5.789062 1.601562 -5.996094 2.007812 -6.144531 C 2.414062 -6.289062 2.886719 -6.363281 3.421875 -6.363281 C 3.953125 -6.363281 4.382812 -6.300781 4.71875 -6.175781 C 5.046875 -6.050781 5.292969 -5.894531 5.449219 -5.703125 C 5.605469 -5.515625 5.714844 -5.273438 5.777344 -4.984375 C 5.8125 -4.804688 5.828125 -4.484375 5.828125 -4.015625 L 5.828125 -2.609375 C 5.828125 -1.628906 5.851562 -1.007812 5.898438 -0.746094 C 5.941406 -0.488281 6.03125 -0.238281 6.164062 0 L 5.0625 0 C 4.953125 -0.21875 4.882812 -0.476562 4.851562 -0.765625 M 4.765625 -3.125 C 4.378906 -2.964844 3.804688 -2.832031 3.039062 -2.726562 C 2.605469 -2.660156 2.300781 -2.589844 2.121094 -2.515625 C 1.941406 -2.433594 1.800781 -2.320312 1.703125 -2.171875 C 1.605469 -2.019531 1.558594 -1.851562 1.558594 -1.671875 C 1.558594 -1.386719 1.664062 -1.152344 1.878906 -0.96875 C 2.089844 -0.78125 2.402344 -0.683594 2.8125 -0.6875 C 3.21875 -0.683594 3.578125 -0.773438 3.898438 -0.953125 C 4.210938 -1.128906 4.445312 -1.371094 4.59375 -1.679688 C 4.707031 -1.917969 4.761719 -2.269531 4.765625 -2.734375 Z M 4.765625 -3.125 "/>
</g>
<g id="glyph-1-14">
<path d="M 0.796875 -7.375 L 0.796875 -8.589844 L 1.851562 -8.589844 L 1.851562 -7.375 L 0.796875 -7.375 M 0.796875 0 L 0.796875 -6.222656 L 1.851562 -6.222656 L 1.851562 0 Z M 0.796875 0 "/>
</g>
<g id="glyph-1-15">
<path d="M 0.398438 -3.109375 C 0.398438 -4.261719 0.71875 -5.117188 1.359375 -5.671875 C 1.894531 -6.132812 2.546875 -6.363281 3.316406 -6.363281 C 4.171875 -6.363281 4.871094 -6.082031 5.414062 -5.523438 C 5.957031 -4.960938 6.226562 -4.1875 6.226562 -3.199219 C 6.226562 -2.398438 6.109375 -1.769531 5.867188 -1.308594 C 5.628906 -0.851562 5.277344 -0.492188 4.820312 -0.242188 C 4.359375 0.0117188 3.859375 0.140625 3.316406 0.140625 C 2.445312 0.140625 1.742188 -0.140625 1.203125 -0.695312 C 0.667969 -1.253906 0.398438 -2.058594 0.398438 -3.109375 M 1.484375 -3.109375 C 1.484375 -2.3125 1.65625 -1.71875 2.003906 -1.320312 C 2.351562 -0.925781 2.789062 -0.726562 3.316406 -0.726562 C 3.839844 -0.726562 4.273438 -0.925781 4.625 -1.324219 C 4.96875 -1.722656 5.144531 -2.328125 5.144531 -3.148438 C 5.144531 -3.914062 4.96875 -4.5 4.621094 -4.894531 C 4.269531 -5.292969 3.835938 -5.492188 3.316406 -5.492188 C 2.789062 -5.492188 2.351562 -5.292969 2.003906 -4.898438 C 1.65625 -4.503906 1.484375 -3.90625 1.484375 -3.109375 Z M 1.484375 -3.109375 "/>
</g>
<g id="glyph-1-16">
<path d="M -0.015625 0 L 3.28125 -8.589844 L 4.507812 -8.589844 L 8.023438 0 L 6.726562 0 L 5.726562 -2.601562 L 2.132812 -2.601562 L 1.1875 0 L -0.015625 0 M 2.460938 -3.527344 L 5.375 -3.527344 L 4.476562 -5.90625 C 4.203125 -6.628906 4 -7.222656 3.867188 -7.6875 C 3.757812 -7.136719 3.601562 -6.589844 3.40625 -6.046875 Z M 2.460938 -3.527344 "/>
</g>
<g id="glyph-1-17">
<path d="M 0.789062 0 L 0.789062 -6.222656 L 1.734375 -6.222656 L 1.734375 -5.351562 C 1.929688 -5.65625 2.1875 -5.898438 2.515625 -6.085938 C 2.835938 -6.269531 3.207031 -6.363281 3.621094 -6.363281 C 4.082031 -6.363281 4.460938 -6.265625 4.753906 -6.078125 C 5.050781 -5.882812 5.257812 -5.617188 5.378906 -5.273438 C 5.871094 -6 6.511719 -6.363281 7.300781 -6.363281 C 7.917969 -6.363281 8.390625 -6.191406 8.726562 -5.851562 C 9.054688 -5.507812 9.222656 -4.980469 9.222656 -4.273438 L 9.222656 0 L 8.171875 0 L 8.171875 -3.921875 C 8.171875 -4.339844 8.140625 -4.644531 8.070312 -4.832031 C 8.003906 -5.015625 7.878906 -5.164062 7.699219 -5.28125 C 7.519531 -5.390625 7.308594 -5.449219 7.066406 -5.449219 C 6.628906 -5.449219 6.265625 -5.304688 5.976562 -5.011719 C 5.6875 -4.722656 5.542969 -4.253906 5.542969 -3.617188 L 5.542969 0 L 4.488281 0 L 4.488281 -4.042969 C 4.488281 -4.511719 4.402344 -4.863281 4.230469 -5.097656 C 4.058594 -5.332031 3.777344 -5.449219 3.386719 -5.449219 C 3.089844 -5.449219 2.816406 -5.371094 2.5625 -5.214844 C 2.3125 -5.058594 2.128906 -4.828125 2.015625 -4.53125 C 1.902344 -4.226562 1.84375 -3.792969 1.84375 -3.226562 L 1.84375 0 Z M 0.789062 0 "/>
</g>
<g id="glyph-1-18">
<path d="M 4.828125 0 L 4.828125 -0.785156 C 4.433594 -0.167969 3.851562 0.140625 3.085938 0.140625 C 2.589844 0.140625 2.136719 0.00390625 1.71875 -0.269531 C 1.304688 -0.542969 0.980469 -0.925781 0.753906 -1.414062 C 0.523438 -1.90625 0.410156 -2.46875 0.410156 -3.105469 C 0.410156 -3.726562 0.511719 -4.289062 0.71875 -4.796875 C 0.925781 -5.300781 1.238281 -5.6875 1.652344 -5.960938 C 2.066406 -6.226562 2.527344 -6.363281 3.039062 -6.363281 C 3.414062 -6.363281 3.75 -6.285156 4.042969 -6.125 C 4.335938 -5.96875 4.574219 -5.761719 4.757812 -5.507812 L 4.757812 -8.589844 L 5.804688 -8.589844 L 5.804688 0 L 4.828125 0 M 1.492188 -3.105469 C 1.492188 -2.308594 1.660156 -1.710938 2 -1.320312 C 2.332031 -0.921875 2.730469 -0.726562 3.1875 -0.726562 C 3.648438 -0.726562 4.039062 -0.914062 4.363281 -1.292969 C 4.683594 -1.667969 4.84375 -2.242188 4.84375 -3.015625 C 4.84375 -3.867188 4.679688 -4.492188 4.351562 -4.890625 C 4.023438 -5.289062 3.621094 -5.492188 3.140625 -5.492188 C 2.671875 -5.492188 2.28125 -5.296875 1.964844 -4.914062 C 1.652344 -4.53125 1.492188 -3.929688 1.492188 -3.105469 Z M 1.492188 -3.105469 "/>
</g>
<g id="glyph-1-19">
<path d="M 0.945312 0 L 0.945312 -8.589844 L 4.75 -8.589844 C 5.515625 -8.589844 6.101562 -8.511719 6.5 -8.359375 C 6.898438 -8.203125 7.214844 -7.929688 7.453125 -7.539062 C 7.691406 -7.148438 7.8125 -6.71875 7.8125 -6.246094 C 7.8125 -5.636719 7.613281 -5.121094 7.21875 -4.703125 C 6.824219 -4.285156 6.214844 -4.019531 5.390625 -3.90625 C 5.691406 -3.761719 5.917969 -3.621094 6.078125 -3.480469 C 6.40625 -3.175781 6.722656 -2.792969 7.019531 -2.335938 L 8.515625 0 L 7.085938 0 L 5.945312 -1.789062 C 5.613281 -2.304688 5.339844 -2.695312 5.125 -2.96875 C 4.910156 -3.242188 4.71875 -3.433594 4.550781 -3.546875 C 4.378906 -3.652344 4.207031 -3.730469 4.03125 -3.773438 C 3.902344 -3.800781 3.691406 -3.8125 3.398438 -3.8125 L 2.078125 -3.8125 L 2.078125 0 L 0.945312 0 M 2.078125 -4.796875 L 4.523438 -4.796875 C 5.042969 -4.796875 5.449219 -4.851562 5.742188 -4.960938 C 6.035156 -5.066406 6.257812 -5.238281 6.410156 -5.476562 C 6.5625 -5.710938 6.640625 -5.96875 6.640625 -6.246094 C 6.640625 -6.652344 6.492188 -6.984375 6.195312 -7.25 C 5.902344 -7.507812 5.433594 -7.640625 4.796875 -7.640625 L 2.078125 -7.640625 Z M 2.078125 -4.796875 "/>
</g>
<g id="glyph-1-20">
<path d="M 0.789062 0 L 0.789062 -8.589844 L 1.84375 -8.589844 L 1.84375 -5.507812 C 2.335938 -6.078125 2.957031 -6.363281 3.710938 -6.363281 C 4.167969 -6.363281 4.570312 -6.273438 4.910156 -6.089844 C 5.25 -5.910156 5.492188 -5.65625 5.640625 -5.335938 C 5.785156 -5.015625 5.859375 -4.554688 5.859375 -3.945312 L 5.859375 0 L 4.804688 0 L 4.804688 -3.945312 C 4.804688 -4.46875 4.691406 -4.855469 4.460938 -5.09375 C 4.234375 -5.335938 3.910156 -5.453125 3.492188 -5.453125 C 3.179688 -5.453125 2.886719 -5.375 2.609375 -5.210938 C 2.335938 -5.050781 2.140625 -4.828125 2.023438 -4.554688 C 1.90625 -4.273438 1.84375 -3.890625 1.84375 -3.40625 L 1.84375 0 Z M 0.789062 0 "/>
</g>
<g id="glyph-1-21">
<path d="M 1.042969 0 L 1.042969 -5.402344 L 0.109375 -5.402344 L 0.109375 -6.222656 L 1.042969 -6.222656 L 1.042969 -6.882812 C 1.042969 -7.300781 1.078125 -7.613281 1.15625 -7.816406 C 1.253906 -8.089844 1.433594 -8.3125 1.691406 -8.480469 C 1.945312 -8.652344 2.304688 -8.734375 2.765625 -8.734375 C 3.0625 -8.734375 3.390625 -8.703125 3.75 -8.632812 L 3.59375 -7.710938 C 3.371094 -7.75 3.164062 -7.769531 2.96875 -7.769531 C 2.648438 -7.769531 2.421875 -7.699219 2.289062 -7.5625 C 2.15625 -7.425781 2.09375 -7.171875 2.09375 -6.796875 L 2.09375 -6.222656 L 3.304688 -6.222656 L 3.304688 -5.402344 L 2.09375 -5.402344 L 2.09375 0 Z M 1.042969 0 "/>
</g>
<g id="glyph-1-22">
<path d="M 1.765625 0 L 0.785156 0 L 0.785156 -8.589844 L 1.839844 -8.589844 L 1.839844 -5.523438 C 2.285156 -6.082031 2.851562 -6.363281 3.546875 -6.363281 C 3.925781 -6.363281 4.289062 -6.285156 4.632812 -6.132812 C 4.972656 -5.976562 5.253906 -5.761719 5.476562 -5.480469 C 5.695312 -5.203125 5.867188 -4.863281 5.992188 -4.46875 C 6.117188 -4.074219 6.179688 -3.652344 6.179688 -3.203125 C 6.179688 -2.140625 5.917969 -1.3125 5.390625 -0.734375 C 4.863281 -0.152344 4.230469 0.140625 3.492188 0.140625 C 2.757812 0.140625 2.179688 -0.167969 1.765625 -0.78125 L 1.765625 0 M 1.75 -3.15625 C 1.75 -2.410156 1.851562 -1.871094 2.054688 -1.539062 C 2.386719 -1 2.835938 -0.726562 3.40625 -0.726562 C 3.863281 -0.726562 4.261719 -0.925781 4.601562 -1.328125 C 4.933594 -1.726562 5.101562 -2.324219 5.101562 -3.117188 C 5.101562 -3.929688 4.941406 -4.53125 4.621094 -4.914062 C 4.296875 -5.304688 3.90625 -5.496094 3.453125 -5.496094 C 2.988281 -5.496094 2.589844 -5.296875 2.257812 -4.894531 C 1.921875 -4.496094 1.75 -3.914062 1.75 -3.15625 Z M 1.75 -3.15625 "/>
</g>
<g id="glyph-1-23">
<path d="M 0.796875 -5.546875 L 0.527344 -7.15625 L 0.527344 -8.589844 L 1.726562 -8.589844 L 1.726562 -7.15625 L 1.445312 -5.546875 Z M 0.796875 -5.546875 "/>
</g>
<g id="glyph-1-24">
<path d="M 0.0859375 0 L 2.359375 -3.234375 L 0.257812 -6.222656 L 1.578125 -6.222656 L 2.53125 -4.765625 C 2.710938 -4.484375 2.855469 -4.253906 2.964844 -4.066406 C 3.136719 -4.324219 3.292969 -4.554688 3.4375 -4.75 L 4.488281 -6.222656 L 5.75 -6.222656 L 3.597656 -3.292969 L 5.914062 0 L 4.617188 0 L 3.339844 -1.933594 L 3 -2.453125 L 1.367188 0 Z M 0.0859375 0 "/>
</g>
<g id="glyph-1-25">
<path d="M 0.789062 2.382812 L 0.789062 -6.222656 L 1.75 -6.222656 L 1.75 -5.414062 C 1.976562 -5.730469 2.234375 -5.96875 2.519531 -6.125 C 2.804688 -6.285156 3.148438 -6.363281 3.554688 -6.363281 C 4.085938 -6.363281 4.554688 -6.226562 4.960938 -5.953125 C 5.367188 -5.679688 5.675781 -5.292969 5.882812 -4.796875 C 6.089844 -4.296875 6.195312 -3.75 6.195312 -3.15625 C 6.195312 -2.519531 6.078125 -1.949219 5.851562 -1.4375 C 5.621094 -0.929688 5.289062 -0.539062 4.855469 -0.265625 C 4.417969 0.00390625 3.960938 0.140625 3.480469 0.140625 C 3.128906 0.140625 2.8125 0.0664062 2.535156 -0.0820312 C 2.253906 -0.230469 2.023438 -0.417969 1.84375 -0.644531 L 1.84375 2.382812 L 0.789062 2.382812 M 1.746094 -3.078125 C 1.746094 -2.273438 1.90625 -1.683594 2.234375 -1.300781 C 2.554688 -0.917969 2.949219 -0.726562 3.410156 -0.726562 C 3.878906 -0.726562 4.28125 -0.925781 4.613281 -1.320312 C 4.949219 -1.71875 5.113281 -2.332031 5.117188 -3.164062 C 5.113281 -3.957031 4.953125 -4.550781 4.625 -4.945312 C 4.300781 -5.339844 3.910156 -5.535156 3.457031 -5.539062 C 3.007812 -5.535156 2.609375 -5.328125 2.265625 -4.90625 C 1.917969 -4.488281 1.746094 -3.875 1.746094 -3.078125 Z M 1.746094 -3.078125 "/>
</g>
<g id="glyph-1-26">
<path d="M 0.742188 2.398438 L 0.625 1.40625 C 0.855469 1.46875 1.058594 1.5 1.230469 1.5 C 1.464844 1.5 1.652344 1.460938 1.792969 1.382812 C 1.933594 1.304688 2.046875 1.195312 2.140625 1.054688 C 2.203125 0.949219 2.3125 0.6875 2.460938 0.269531 C 2.480469 0.210938 2.511719 0.125 2.554688 0.0117188 L 0.195312 -6.222656 L 1.328125 -6.222656 L 2.625 -2.617188 C 2.792969 -2.164062 2.941406 -1.679688 3.078125 -1.179688 C 3.195312 -1.660156 3.339844 -2.132812 3.507812 -2.59375 L 4.839844 -6.222656 L 5.894531 -6.222656 L 3.527344 0.105469 C 3.273438 0.789062 3.078125 1.257812 2.9375 1.515625 C 2.746094 1.863281 2.53125 2.121094 2.289062 2.28125 C 2.046875 2.445312 1.757812 2.523438 1.421875 2.523438 C 1.21875 2.523438 0.992188 2.480469 0.742188 2.398438 Z M 0.742188 2.398438 "/>
</g>
<g id="glyph-2-0">
<path d="M 3.675781 0 L -0.0078125 -10.308594 L 2.25 -10.308594 L 4.859375 -2.679688 L 7.382812 -10.308594 L 9.589844 -10.308594 L 5.898438 0 Z M 3.675781 0 "/>
</g>
<g id="glyph-2-1">
<path d="M 2.511719 -5.1875 L 0.71875 -5.511719 C 0.917969 -6.234375 1.265625 -6.769531 1.757812 -7.117188 C 2.25 -7.460938 2.980469 -7.636719 3.953125 -7.636719 C 4.832031 -7.636719 5.488281 -7.53125 5.921875 -7.324219 C 6.351562 -7.113281 6.65625 -6.847656 6.832031 -6.527344 C 7.007812 -6.207031 7.09375 -5.617188 7.09375 -4.761719 L 7.074219 -2.453125 C 7.074219 -1.796875 7.105469 -1.3125 7.167969 -1 C 7.230469 -0.691406 7.351562 -0.355469 7.523438 0 L 5.570312 0 C 5.515625 -0.132812 5.453125 -0.324219 5.378906 -0.582031 C 5.347656 -0.699219 5.324219 -0.777344 5.308594 -0.816406 C 4.972656 -0.488281 4.609375 -0.242188 4.226562 -0.078125 C 3.839844 0.0859375 3.429688 0.167969 2.996094 0.167969 C 2.226562 0.167969 1.621094 -0.0390625 1.175781 -0.457031 C 0.734375 -0.875 0.511719 -1.402344 0.511719 -2.039062 C 0.511719 -2.460938 0.613281 -2.835938 0.816406 -3.167969 C 1.015625 -3.496094 1.300781 -3.75 1.664062 -3.925781 C 2.027344 -4.101562 2.550781 -4.257812 3.234375 -4.386719 C 4.15625 -4.5625 4.796875 -4.722656 5.152344 -4.871094 L 5.152344 -5.070312 C 5.152344 -5.449219 5.058594 -5.71875 4.871094 -5.882812 C 4.683594 -6.042969 4.332031 -6.125 3.8125 -6.125 C 3.460938 -6.125 3.183594 -6.054688 2.988281 -5.917969 C 2.792969 -5.777344 2.632812 -5.535156 2.511719 -5.1875 M 5.152344 -3.585938 C 4.902344 -3.5 4.5 -3.402344 3.953125 -3.285156 C 3.402344 -3.167969 3.042969 -3.050781 2.875 -2.9375 C 2.617188 -2.757812 2.488281 -2.523438 2.488281 -2.242188 C 2.488281 -1.964844 2.59375 -1.726562 2.796875 -1.527344 C 3.003906 -1.324219 3.265625 -1.222656 3.585938 -1.222656 C 3.941406 -1.222656 4.28125 -1.339844 4.605469 -1.574219 C 4.84375 -1.753906 5 -1.972656 5.078125 -2.230469 C 5.128906 -2.398438 5.152344 -2.71875 5.152344 -3.191406 Z M 5.152344 -3.585938 "/>
</g>
<g id="glyph-2-2">
<path d="M 2.925781 0 L 0.949219 0 L 0.949219 -7.46875 L 2.785156 -7.46875 L 2.785156 -6.40625 C 3.097656 -6.90625 3.378906 -7.238281 3.632812 -7.398438 C 3.882812 -7.554688 4.167969 -7.636719 4.484375 -7.636719 C 4.9375 -7.636719 5.371094 -7.511719 5.785156 -7.261719 L 5.175781 -5.539062 C 4.84375 -5.757812 4.53125 -5.863281 4.246094 -5.863281 C 3.96875 -5.863281 3.734375 -5.789062 3.542969 -5.636719 C 3.351562 -5.484375 3.199219 -5.207031 3.089844 -4.808594 C 2.980469 -4.410156 2.925781 -3.578125 2.925781 -2.304688 Z M 2.925781 0 "/>
</g>
<g id="glyph-2-3">
<path d="M 1.035156 -8.480469 L 1.035156 -10.308594 L 3.007812 -10.308594 L 3.007812 -8.480469 L 1.035156 -8.480469 M 1.035156 0 L 1.035156 -7.46875 L 3.007812 -7.46875 L 3.007812 0 Z M 1.035156 0 "/>
</g>
<g id="glyph-2-4">
<path d="M 0.949219 0 L 0.949219 -10.308594 L 2.925781 -10.308594 L 2.925781 -6.59375 C 3.535156 -7.289062 4.257812 -7.636719 5.089844 -7.636719 C 6 -7.636719 6.753906 -7.304688 7.347656 -6.648438 C 7.941406 -5.988281 8.242188 -5.042969 8.242188 -3.8125 C 8.242188 -2.535156 7.9375 -1.554688 7.328125 -0.863281 C 6.722656 -0.175781 5.984375 0.167969 5.117188 0.167969 C 4.691406 0.167969 4.273438 0.0625 3.855469 -0.152344 C 3.441406 -0.363281 3.085938 -0.679688 2.785156 -1.097656 L 2.785156 0 L 0.949219 0 M 2.910156 -3.894531 C 2.910156 -3.121094 3.03125 -2.550781 3.277344 -2.179688 C 3.617188 -1.65625 4.074219 -1.390625 4.640625 -1.390625 C 5.078125 -1.390625 5.449219 -1.578125 5.753906 -1.949219 C 6.0625 -2.324219 6.214844 -2.910156 6.214844 -3.710938 C 6.214844 -4.566406 6.0625 -5.179688 5.75 -5.558594 C 5.441406 -5.933594 5.046875 -6.125 4.5625 -6.125 C 4.089844 -6.125 3.695312 -5.941406 3.382812 -5.570312 C 3.066406 -5.203125 2.910156 -4.644531 2.910156 -3.894531 Z M 2.910156 -3.894531 "/>
</g>
<g id="glyph-2-5">
<path d="M 1.035156 0 L 1.035156 -10.308594 L 3.007812 -10.308594 L 3.007812 0 Z M 1.035156 0 "/>
</g>
<g id="glyph-2-6">
<path d="M 5.359375 -2.375 L 7.328125 -2.046875 C 7.074219 -1.324219 6.671875 -0.773438 6.128906 -0.398438 C 5.582031 -0.0195312 4.898438 0.167969 4.078125 0.167969 C 2.78125 0.167969 1.820312 -0.253906 1.195312 -1.105469 C 0.703125 -1.785156 0.457031 -2.640625 0.457031 -3.675781 C 0.457031 -4.914062 0.78125 -5.882812 1.425781 -6.585938 C 2.074219 -7.285156 2.890625 -7.636719 3.882812 -7.636719 C 4.992188 -7.636719 5.867188 -7.269531 6.511719 -6.535156 C 7.152344 -5.800781 7.460938 -4.679688 7.433594 -3.164062 L 2.480469 -3.164062 C 2.496094 -2.578125 2.65625 -2.121094 2.960938 -1.796875 C 3.265625 -1.46875 3.644531 -1.308594 4.097656 -1.308594 C 4.410156 -1.308594 4.667969 -1.390625 4.878906 -1.5625 C 5.089844 -1.730469 5.25 -2 5.359375 -2.375 M 5.46875 -4.375 C 5.457031 -4.945312 5.308594 -5.378906 5.027344 -5.675781 C 4.746094 -5.976562 4.402344 -6.125 4 -6.125 C 3.570312 -6.125 3.214844 -5.96875 2.933594 -5.652344 C 2.652344 -5.339844 2.511719 -4.914062 2.515625 -4.375 Z M 5.46875 -4.375 "/>
</g>
<g id="glyph-2-7">
<path d="M 0.335938 -2.128906 L 2.320312 -2.433594 C 2.40625 -2.046875 2.574219 -1.757812 2.832031 -1.558594 C 3.089844 -1.359375 3.453125 -1.257812 3.917969 -1.257812 C 4.425781 -1.257812 4.8125 -1.351562 5.070312 -1.539062 C 5.242188 -1.671875 5.328125 -1.847656 5.328125 -2.066406 C 5.328125 -2.21875 5.28125 -2.339844 5.1875 -2.441406 C 5.089844 -2.535156 4.871094 -2.621094 4.527344 -2.699219 C 2.933594 -3.050781 1.925781 -3.371094 1.496094 -3.664062 C 0.90625 -4.066406 0.613281 -4.625 0.613281 -5.34375 C 0.613281 -5.992188 0.867188 -6.535156 1.378906 -6.976562 C 1.890625 -7.414062 2.679688 -7.636719 3.753906 -7.636719 C 4.777344 -7.636719 5.535156 -7.46875 6.03125 -7.136719 C 6.53125 -6.804688 6.871094 -6.3125 7.058594 -5.660156 L 5.195312 -5.316406 C 5.117188 -5.605469 4.964844 -5.828125 4.742188 -5.984375 C 4.519531 -6.136719 4.203125 -6.214844 3.789062 -6.214844 C 3.269531 -6.214844 2.898438 -6.144531 2.671875 -5.996094 C 2.523438 -5.894531 2.445312 -5.761719 2.445312 -5.597656 C 2.445312 -5.457031 2.511719 -5.335938 2.644531 -5.238281 C 2.820312 -5.105469 3.4375 -4.921875 4.488281 -4.683594 C 5.542969 -4.445312 6.277344 -4.152344 6.695312 -3.804688 C 7.105469 -3.453125 7.3125 -2.960938 7.3125 -2.335938 C 7.3125 -1.648438 7.027344 -1.0625 6.453125 -0.570312 C 5.882812 -0.078125 5.035156 0.167969 3.917969 0.167969 C 2.898438 0.167969 2.09375 -0.0390625 1.5 -0.449219 C 0.910156 -0.863281 0.519531 -1.421875 0.335938 -2.128906 Z M 0.335938 -2.128906 "/>
</g>
<g id="glyph-2-8">
</g>
<g id="glyph-2-9">
<path d="M 7.882812 0 L 6.046875 0 L 6.046875 -1.097656 C 5.742188 -0.671875 5.382812 -0.351562 4.96875 -0.144531 C 4.550781 0.0625 4.132812 0.167969 3.710938 0.167969 C 2.855469 0.167969 2.121094 -0.175781 1.507812 -0.867188 C 0.894531 -1.558594 0.589844 -2.523438 0.589844 -3.761719 C 0.589844 -5.027344 0.886719 -5.988281 1.484375 -6.648438 C 2.078125 -7.304688 2.832031 -7.636719 3.742188 -7.636719 C 4.574219 -7.636719 5.296875 -7.289062 5.90625 -6.59375 L 5.90625 -10.308594 L 7.882812 -10.308594 L 7.882812 0 M 2.609375 -3.894531 C 2.609375 -3.097656 2.71875 -2.523438 2.9375 -2.164062 C 3.257812 -1.648438 3.703125 -1.390625 4.273438 -1.390625 C 4.730469 -1.390625 5.117188 -1.585938 5.433594 -1.972656 C 5.753906 -2.359375 5.914062 -2.9375 5.914062 -3.707031 C 5.914062 -4.5625 5.757812 -5.179688 5.449219 -5.558594 C 5.140625 -5.933594 4.742188 -6.125 4.261719 -6.125 C 3.792969 -6.125 3.398438 -5.9375 3.082031 -5.566406 C 2.765625 -5.191406 2.609375 -4.636719 2.609375 -3.894531 Z M 2.609375 -3.894531 "/>
</g>
<g id="glyph-2-10">
<path d="M 0.167969 -7.46875 L 1.265625 -7.46875 L 1.265625 -8.03125 C 1.265625 -8.65625 1.332031 -9.125 1.464844 -9.4375 C 1.597656 -9.746094 1.84375 -9.996094 2.203125 -10.191406 C 2.5625 -10.386719 3.015625 -10.484375 3.566406 -10.484375 C 4.128906 -10.484375 4.679688 -10.398438 5.21875 -10.230469 L 4.949219 -8.851562 C 4.636719 -8.925781 4.332031 -8.964844 4.042969 -8.964844 C 3.757812 -8.964844 3.550781 -8.898438 3.425781 -8.765625 C 3.304688 -8.632812 3.242188 -8.375 3.242188 -7.996094 L 3.242188 -7.46875 L 4.71875 -7.46875 L 4.71875 -5.914062 L 3.242188 -5.914062 L 3.242188 0 L 1.265625 0 L 1.265625 -5.914062 L 0.167969 -5.914062 Z M 0.167969 -7.46875 "/>
</g>
<g id="glyph-2-11">
<path d="M 7.824219 0 L 5.851562 0 L 5.851562 -3.8125 C 5.851562 -4.617188 5.808594 -5.136719 5.722656 -5.375 C 5.640625 -5.613281 5.5 -5.796875 5.3125 -5.925781 C 5.121094 -6.058594 4.894531 -6.125 4.625 -6.125 C 4.285156 -6.125 3.976562 -6.03125 3.707031 -5.84375 C 3.433594 -5.65625 3.246094 -5.40625 3.144531 -5.097656 C 3.046875 -4.789062 2.996094 -4.214844 2.996094 -3.382812 L 2.996094 0 L 1.019531 0 L 1.019531 -7.46875 L 2.855469 -7.46875 L 2.855469 -6.371094 C 3.507812 -7.214844 4.328125 -7.636719 5.316406 -7.636719 C 5.75 -7.636719 6.148438 -7.558594 6.511719 -7.398438 C 6.871094 -7.242188 7.144531 -7.042969 7.328125 -6.800781 C 7.515625 -6.554688 7.644531 -6.277344 7.714844 -5.96875 C 7.789062 -5.660156 7.824219 -5.21875 7.824219 -4.640625 Z M 7.824219 0 "/>
</g>
<g id="glyph-2-12">
<path d="M 0.851562 0.492188 L 3.109375 0.765625 C 3.144531 1.027344 3.230469 1.210938 3.367188 1.308594 C 3.554688 1.449219 3.851562 1.519531 4.253906 1.519531 C 4.769531 1.519531 5.15625 1.441406 5.414062 1.285156 C 5.585938 1.183594 5.71875 1.015625 5.808594 0.789062 C 5.867188 0.625 5.898438 0.320312 5.898438 -0.121094 L 5.898438 -1.210938 C 5.308594 -0.402344 4.5625 0 3.664062 0 C 2.660156 0 1.867188 -0.425781 1.28125 -1.273438 C 0.820312 -1.941406 0.589844 -2.777344 0.589844 -3.777344 C 0.589844 -5.027344 0.890625 -5.984375 1.492188 -6.644531 C 2.097656 -7.304688 2.84375 -7.636719 3.742188 -7.636719 C 4.664062 -7.636719 5.425781 -7.230469 6.027344 -6.417969 L 6.027344 -7.46875 L 7.875 -7.46875 L 7.875 -0.765625 C 7.875 0.113281 7.800781 0.773438 7.65625 1.210938 C 7.511719 1.644531 7.308594 1.988281 7.046875 2.234375 C 6.78125 2.484375 6.433594 2.679688 5.992188 2.820312 C 5.554688 2.960938 5 3.03125 4.332031 3.03125 C 3.066406 3.03125 2.167969 2.8125 1.636719 2.378906 C 1.109375 1.945312 0.84375 1.398438 0.84375 0.730469 C 0.84375 0.664062 0.847656 0.585938 0.851562 0.492188 M 2.617188 -3.886719 C 2.617188 -3.097656 2.769531 -2.515625 3.074219 -2.148438 C 3.382812 -1.78125 3.761719 -1.597656 4.210938 -1.597656 C 4.695312 -1.597656 5.101562 -1.785156 5.433594 -2.164062 C 5.769531 -2.539062 5.933594 -3.097656 5.933594 -3.839844 C 5.933594 -4.613281 5.773438 -5.1875 5.457031 -5.5625 C 5.136719 -5.9375 4.734375 -6.125 4.246094 -6.125 C 3.773438 -6.125 3.382812 -5.941406 3.074219 -5.570312 C 2.769531 -5.203125 2.617188 -4.644531 2.617188 -3.886719 Z M 2.617188 -3.886719 "/>
</g>
<g id="glyph-2-13">
<path d="M 4.457031 -7.46875 L 4.457031 -5.890625 L 3.109375 -5.890625 L 3.109375 -2.882812 C 3.109375 -2.273438 3.121094 -1.917969 3.144531 -1.816406 C 3.171875 -1.714844 3.230469 -1.632812 3.320312 -1.566406 C 3.414062 -1.503906 3.523438 -1.46875 3.65625 -1.46875 C 3.839844 -1.46875 4.105469 -1.53125 4.449219 -1.660156 L 4.621094 -0.125 C 4.160156 0.0703125 3.640625 0.167969 3.058594 0.167969 C 2.703125 0.167969 2.382812 0.109375 2.09375 -0.0117188 C 1.808594 -0.128906 1.597656 -0.285156 1.464844 -0.472656 C 1.332031 -0.664062 1.238281 -0.921875 1.1875 -1.246094 C 1.144531 -1.472656 1.125 -1.9375 1.125 -2.636719 L 1.125 -5.890625 L 0.21875 -5.890625 L 0.21875 -7.46875 L 1.125 -7.46875 L 1.125 -8.949219 L 3.109375 -10.105469 L 3.109375 -7.46875 Z M 4.457031 -7.46875 "/>
</g>
<g id="glyph-2-14">
<path d="M 3.003906 -10.308594 L 3.003906 -6.519531 C 3.640625 -7.261719 4.402344 -7.636719 5.289062 -7.636719 C 5.742188 -7.636719 6.152344 -7.550781 6.519531 -7.382812 C 6.882812 -7.214844 7.160156 -7 7.34375 -6.734375 C 7.527344 -6.472656 7.65625 -6.183594 7.722656 -5.863281 C 7.792969 -5.546875 7.824219 -5.050781 7.824219 -4.378906 L 7.824219 0 L 5.851562 0 L 5.851562 -3.945312 C 5.851562 -4.726562 5.8125 -5.222656 5.738281 -5.433594 C 5.664062 -5.644531 5.53125 -5.8125 5.339844 -5.9375 C 5.148438 -6.0625 4.914062 -6.125 4.625 -6.125 C 4.296875 -6.125 4.003906 -6.042969 3.746094 -5.886719 C 3.488281 -5.726562 3.300781 -5.484375 3.179688 -5.164062 C 3.0625 -4.84375 3.003906 -4.367188 3.003906 -3.742188 L 3.003906 0 L 1.027344 0 L 1.027344 -10.308594 Z M 3.003906 -10.308594 "/>
</g>
<g id="glyph-2-15">
<path d="M 7.542969 -5.257812 L 5.597656 -4.90625 C 5.53125 -5.296875 5.382812 -5.589844 5.148438 -5.785156 C 4.917969 -5.984375 4.617188 -6.082031 4.246094 -6.082031 C 3.753906 -6.082031 3.363281 -5.910156 3.070312 -5.570312 C 2.777344 -5.230469 2.628906 -4.664062 2.628906 -3.867188 C 2.628906 -2.980469 2.777344 -2.355469 3.074219 -1.988281 C 3.375 -1.625 3.773438 -1.441406 4.273438 -1.441406 C 4.648438 -1.441406 4.957031 -1.546875 5.195312 -1.761719 C 5.433594 -1.972656 5.605469 -2.339844 5.703125 -2.863281 L 7.644531 -2.53125 C 7.441406 -1.640625 7.054688 -0.96875 6.484375 -0.511719 C 5.910156 -0.0585938 5.144531 0.167969 4.183594 0.167969 C 3.089844 0.167969 2.21875 -0.175781 1.570312 -0.863281 C 0.921875 -1.554688 0.597656 -2.507812 0.597656 -3.726562 C 0.597656 -4.960938 0.921875 -5.917969 1.574219 -6.605469 C 2.226562 -7.292969 3.109375 -7.636719 4.21875 -7.636719 C 5.128906 -7.636719 5.851562 -7.441406 6.386719 -7.046875 C 6.925781 -6.65625 7.308594 -6.0625 7.542969 -5.257812 Z M 7.542969 -5.257812 "/>
</g>
<g id="glyph-2-16">
<path d="M 5.949219 0 L 5.949219 -1.117188 C 5.675781 -0.71875 5.320312 -0.40625 4.875 -0.175781 C 4.433594 0.0546875 3.964844 0.167969 3.472656 0.167969 C 2.972656 0.167969 2.523438 0.0585938 2.125 -0.160156 C 1.726562 -0.382812 1.4375 -0.691406 1.257812 -1.089844 C 1.082031 -1.488281 0.992188 -2.039062 0.992188 -2.742188 L 0.992188 -7.46875 L 2.96875 -7.46875 L 2.96875 -4.035156 C 2.96875 -2.984375 3.003906 -2.34375 3.074219 -2.105469 C 3.148438 -1.867188 3.28125 -1.679688 3.472656 -1.542969 C 3.664062 -1.40625 3.910156 -1.335938 4.203125 -1.335938 C 4.542969 -1.335938 4.84375 -1.429688 5.113281 -1.613281 C 5.378906 -1.796875 5.5625 -2.027344 5.660156 -2.300781 C 5.757812 -2.578125 5.808594 -3.25 5.808594 -4.316406 L 5.808594 -7.46875 L 7.785156 -7.46875 L 7.785156 0 Z M 5.949219 0 "/>
</g>
</g>
<clipPath id="clip-0">
<path clip-rule="nonzero" d="M 50.324219 273 L 250.542969 273 L 250.542969 275 L 50.324219 275 Z M 50.324219 273 "/>
</clipPath>
<clipPath id="clip-1">
<path clip-rule="nonzero" d="M 50.324219 193 L 250.542969 193 L 250.542969 195 L 50.324219 195 Z M 50.324219 193 "/>
</clipPath>
<clipPath id="clip-2">
<path clip-rule="nonzero" d="M 50.324219 114 L 250.542969 114 L 250.542969 116 L 50.324219 116 Z M 50.324219 114 "/>
</clipPath>
<clipPath id="clip-3">
<path clip-rule="nonzero" d="M 58 66.84375 L 61 66.84375 L 61 321.648438 L 58 321.648438 Z M 58 66.84375 "/>
</clipPath>
<clipPath id="clip-4">
<path clip-rule="nonzero" d="M 104 66.84375 L 106 66.84375 L 106 321.648438 L 104 321.648438 Z M 104 66.84375 "/>
</clipPath>
<clipPath id="clip-5">
<path clip-rule="nonzero" d="M 150 66.84375 L 152 66.84375 L 152 321.648438 L 150 321.648438 Z M 150 66.84375 "/>
</clipPath>
<clipPath id="clip-6">
<path clip-rule="nonzero" d="M 195 66.84375 L 197 66.84375 L 197 321.648438 L 195 321.648438 Z M 195 66.84375 "/>
</clipPath>
<clipPath id="clip-7">
<path clip-rule="nonzero" d="M 241 66.84375 L 243 66.84375 L 243 321.648438 L 241 321.648438 Z M 241 66.84375 "/>
</clipPath>
<clipPath id="clip-8">
<path clip-rule="nonzero" d="M 256.519531 273 L 456.738281 273 L 456.738281 275 L 256.519531 275 Z M 256.519531 273 "/>
</clipPath>
<clipPath id="clip-9">
<path clip-rule="nonzero" d="M 256.519531 193 L 456.738281 193 L 456.738281 195 L 256.519531 195 Z M 256.519531 193 "/>
</clipPath>
<clipPath id="clip-10">
<path clip-rule="nonzero" d="M 256.519531 114 L 456.738281 114 L 456.738281 116 L 256.519531 116 Z M 256.519531 114 "/>
</clipPath>
<clipPath id="clip-11">
<path clip-rule="nonzero" d="M 265 66.84375 L 267 66.84375 L 267 321.648438 L 265 321.648438 Z M 265 66.84375 "/>
</clipPath>
<clipPath id="clip-12">
<path clip-rule="nonzero" d="M 310 66.84375 L 312 66.84375 L 312 321.648438 L 310 321.648438 Z M 310 66.84375 "/>
</clipPath>
<clipPath id="clip-13">
<path clip-rule="nonzero" d="M 356 66.84375 L 358 66.84375 L 358 321.648438 L 356 321.648438 Z M 356 66.84375 "/>
</clipPath>
<clipPath id="clip-14">
<path clip-rule="nonzero" d="M 401 66.84375 L 404 66.84375 L 404 321.648438 L 401 321.648438 Z M 401 66.84375 "/>
</clipPath>
<clipPath id="clip-15">
<path clip-rule="nonzero" d="M 447 66.84375 L 449 66.84375 L 449 321.648438 L 447 321.648438 Z M 447 66.84375 "/>
</clipPath>
</defs>
<rect x="-57.6" y="-36" width="691.2" height="432" fill="rgb(100%, 100%, 100%)" fill-opacity="1"/>
<rect x="-57.6" y="-36" width="691.2" height="432" fill="rgb(100%, 100%, 100%)" fill-opacity="1"/>
<g clip-path="url(#clip-0)">
<path fill="none" stroke-width="1.163976" stroke-linecap="butt" stroke-linejoin="round" stroke="rgb(92.156863%, 92.156863%, 92.156863%)" stroke-opacity="1" stroke-miterlimit="10" d="M 50.324219 273.871094 L 250.542969 273.871094 "/>
</g>
<g clip-path="url(#clip-1)">
<path fill="none" stroke-width="1.163976" stroke-linecap="butt" stroke-linejoin="round" stroke="rgb(92.156863%, 92.156863%, 92.156863%)" stroke-opacity="1" stroke-miterlimit="10" d="M 50.324219 194.246094 L 250.542969 194.246094 "/>
</g>
<g clip-path="url(#clip-2)">
<path fill="none" stroke-width="1.163976" stroke-linecap="butt" stroke-linejoin="round" stroke="rgb(92.156863%, 92.156863%, 92.156863%)" stroke-opacity="1" stroke-miterlimit="10" d="M 50.324219 114.617188 L 250.542969 114.617188 "/>
</g>
<g clip-path="url(#clip-3)">
<path fill="none" stroke-width="1.163976" stroke-linecap="butt" stroke-linejoin="round" stroke="rgb(92.156863%, 92.156863%, 92.156863%)" stroke-opacity="1" stroke-miterlimit="10" d="M 59.425781 321.644531 L 59.425781 66.84375 "/>
</g>
<g clip-path="url(#clip-4)">
<path fill="none" stroke-width="1.163976" stroke-linecap="butt" stroke-linejoin="round" stroke="rgb(92.156863%, 92.156863%, 92.156863%)" stroke-opacity="1" stroke-miterlimit="10" d="M 105.058594 321.644531 L 105.058594 66.84375 "/>
</g>
<g clip-path="url(#clip-5)">
<path fill="none" stroke-width="1.163976" stroke-linecap="butt" stroke-linejoin="round" stroke="rgb(92.156863%, 92.156863%, 92.156863%)" stroke-opacity="1" stroke-miterlimit="10" d="M 150.691406 321.644531 L 150.691406 66.84375 "/>
</g>
<g clip-path="url(#clip-6)">
<path fill="none" stroke-width="1.163976" stroke-linecap="butt" stroke-linejoin="round" stroke="rgb(92.156863%, 92.156863%, 92.156863%)" stroke-opacity="1" stroke-miterlimit="10" d="M 196.320312 321.644531 L 196.320312 66.84375 "/>
</g>
<g clip-path="url(#clip-7)">
<path fill="none" stroke-width="1.163976" stroke-linecap="butt" stroke-linejoin="round" stroke="rgb(92.156863%, 92.156863%, 92.156863%)" stroke-opacity="1" stroke-miterlimit="10" d="M 241.953125 321.644531 L 241.953125 66.84375 "/>
</g>
<path fill-rule="nonzero" fill="rgb(8.627451%, 49.019608%, 55.294118%)" fill-opacity="1" d="M 59.425781 220.121094 L 241.441406 220.121094 L 241.441406 168.363281 L 59.425781 168.363281 Z M 59.425781 220.121094 "/>
<path fill-rule="nonzero" fill="rgb(8.627451%, 49.019608%, 55.294118%)" fill-opacity="1" d="M 59.425781 140.496094 L 239.296875 140.496094 L 239.296875 88.738281 L 59.425781 88.738281 Z M 59.425781 140.496094 "/>
<path fill-rule="nonzero" fill="rgb(72.54902%, 76.470588%, 79.215686%)" fill-opacity="1" d="M 59.425781 299.75 L 69.183594 299.75 L 69.183594 247.992188 L 59.425781 247.992188 Z M 59.425781 299.75 "/>
<g clip-path="url(#clip-8)">
<path fill="none" stroke-width="1.163976" stroke-linecap="butt" stroke-linejoin="round" stroke="rgb(92.156863%, 92.156863%, 92.156863%)" stroke-opacity="1" stroke-miterlimit="10" d="M 256.519531 273.871094 L 456.738281 273.871094 "/>
</g>
<g clip-path="url(#clip-9)">
<path fill="none" stroke-width="1.163976" stroke-linecap="butt" stroke-linejoin="round" stroke="rgb(92.156863%, 92.156863%, 92.156863%)" stroke-opacity="1" stroke-miterlimit="10" d="M 256.519531 194.246094 L 456.738281 194.246094 "/>
</g>
<g clip-path="url(#clip-10)">
<path fill="none" stroke-width="1.163976" stroke-linecap="butt" stroke-linejoin="round" stroke="rgb(92.156863%, 92.156863%, 92.156863%)" stroke-opacity="1" stroke-miterlimit="10" d="M 256.519531 114.617188 L 456.738281 114.617188 "/>
</g>
<g clip-path="url(#clip-11)">
<path fill="none" stroke-width="1.163976" stroke-linecap="butt" stroke-linejoin="round" stroke="rgb(92.156863%, 92.156863%, 92.156863%)" stroke-opacity="1" stroke-miterlimit="10" d="M 265.621094 321.644531 L 265.621094 66.84375 "/>
</g>
<g clip-path="url(#clip-12)">
<path fill="none" stroke-width="1.163976" stroke-linecap="butt" stroke-linejoin="round" stroke="rgb(92.156863%, 92.156863%, 92.156863%)" stroke-opacity="1" stroke-miterlimit="10" d="M 311.253906 321.644531 L 311.253906 66.84375 "/>
</g>
<g clip-path="url(#clip-13)">
<path fill="none" stroke-width="1.163976" stroke-linecap="butt" stroke-linejoin="round" stroke="rgb(92.156863%, 92.156863%, 92.156863%)" stroke-opacity="1" stroke-miterlimit="10" d="M 356.886719 321.644531 L 356.886719 66.84375 "/>
</g>
<g clip-path="url(#clip-14)">
<path fill="none" stroke-width="1.163976" stroke-linecap="butt" stroke-linejoin="round" stroke="rgb(92.156863%, 92.156863%, 92.156863%)" stroke-opacity="1" stroke-miterlimit="10" d="M 402.519531 321.644531 L 402.519531 66.84375 "/>
</g>
<g clip-path="url(#clip-15)">
<path fill="none" stroke-width="1.163976" stroke-linecap="butt" stroke-linejoin="round" stroke="rgb(92.156863%, 92.156863%, 92.156863%)" stroke-opacity="1" stroke-miterlimit="10" d="M 448.148438 321.644531 L 448.148438 66.84375 "/>
</g>
<path fill-rule="nonzero" fill="rgb(8.627451%, 49.019608%, 55.294118%)" fill-opacity="1" d="M 265.621094 140.496094 L 446.511719 140.496094 L 446.511719 88.738281 L 265.621094 88.738281 Z M 265.621094 140.496094 "/>
<path fill-rule="nonzero" fill="rgb(8.627451%, 49.019608%, 55.294118%)" fill-opacity="1" d="M 265.621094 220.121094 L 434.550781 220.121094 L 434.550781 168.363281 L 265.621094 168.363281 Z M 265.621094 220.121094 "/>
<path fill-rule="nonzero" fill="rgb(72.54902%, 76.470588%, 79.215686%)" fill-opacity="1" d="M 265.621094 299.75 L 280.398438 299.75 L 280.398438 247.992188 L 265.621094 247.992188 Z M 265.621094 299.75 "/>
<g fill="rgb(10.196078%, 10.196078%, 10.196078%)" fill-opacity="1">
<use xlink:href="#glyph-0-0" x="124.554688" y="60.550781"/>
<use xlink:href="#glyph-0-1" x="131.4875" y="60.550781"/>
<use xlink:href="#glyph-0-2" x="136.826563" y="60.550781"/>
<use xlink:href="#glyph-0-3" x="140.023438" y="60.550781"/>
<use xlink:href="#glyph-0-4" x="142.690625" y="60.550781"/>
<use xlink:href="#glyph-0-5" x="148.029688" y="60.550781"/>
<use xlink:href="#glyph-0-6" x="150.696875" y="60.550781"/>
<use xlink:href="#glyph-0-7" x="153.364063" y="60.550781"/>
<use xlink:href="#glyph-0-8" x="158.164063" y="60.550781"/>
<use xlink:href="#glyph-0-9" x="160.296875" y="60.550781"/>
<use xlink:href="#glyph-0-10" x="165.635938" y="60.550781"/>
<use xlink:href="#glyph-0-11" x="170.975" y="60.550781"/>
</g>
<g fill="rgb(10.196078%, 10.196078%, 10.196078%)" fill-opacity="1">
<use xlink:href="#glyph-0-12" x="329.941406" y="60.550781"/>
<use xlink:href="#glyph-0-1" x="336.344531" y="60.550781"/>
<use xlink:href="#glyph-0-13" x="341.683594" y="60.550781"/>
<use xlink:href="#glyph-0-3" x="347.022656" y="60.550781"/>
<use xlink:href="#glyph-0-4" x="349.689844" y="60.550781"/>
<use xlink:href="#glyph-0-5" x="355.028906" y="60.550781"/>
<use xlink:href="#glyph-0-6" x="357.696094" y="60.550781"/>
<use xlink:href="#glyph-0-7" x="360.363281" y="60.550781"/>
<use xlink:href="#glyph-0-8" x="365.163281" y="60.550781"/>
<use xlink:href="#glyph-0-9" x="367.296094" y="60.550781"/>
<use xlink:href="#glyph-0-10" x="372.635156" y="60.550781"/>
<use xlink:href="#glyph-0-11" x="377.974219" y="60.550781"/>
</g>
<g fill="rgb(30.196078%, 30.196078%, 30.196078%)" fill-opacity="1">
<use xlink:href="#glyph-0-14" x="52.488281" y="334.898438"/>
<use xlink:href="#glyph-0-15" x="57.827344" y="334.898438"/>
</g>
<g fill="rgb(30.196078%, 30.196078%, 30.196078%)" fill-opacity="1">
<use xlink:href="#glyph-0-16" x="95.453125" y="334.898438"/>
<use xlink:href="#glyph-0-17" x="100.792187" y="334.898438"/>
<use xlink:href="#glyph-0-15" x="106.13125" y="334.898438"/>
</g>
<g fill="rgb(30.196078%, 30.196078%, 30.196078%)" fill-opacity="1">
<use xlink:href="#glyph-0-17" x="141.085938" y="334.898438"/>
<use xlink:href="#glyph-0-14" x="146.425" y="334.898438"/>
<use xlink:href="#glyph-0-15" x="151.764063" y="334.898438"/>
</g>
<g fill="rgb(30.196078%, 30.196078%, 30.196078%)" fill-opacity="1">
<use xlink:href="#glyph-0-18" x="186.714844" y="334.898438"/>
<use xlink:href="#glyph-0-17" x="192.053906" y="334.898438"/>
<use xlink:href="#glyph-0-15" x="197.392969" y="334.898438"/>
</g>
<g fill="rgb(30.196078%, 30.196078%, 30.196078%)" fill-opacity="1">
<use xlink:href="#glyph-0-19" x="229.675781" y="334.898438"/>
<use xlink:href="#glyph-0-14" x="235.014844" y="334.898438"/>
<use xlink:href="#glyph-0-14" x="240.353906" y="334.898438"/>
<use xlink:href="#glyph-0-15" x="245.692969" y="334.898438"/>
</g>
<g fill="rgb(30.196078%, 30.196078%, 30.196078%)" fill-opacity="1">
<use xlink:href="#glyph-0-14" x="258.683594" y="334.898438"/>
<use xlink:href="#glyph-0-15" x="264.022656" y="334.898438"/>
</g>
<g fill="rgb(30.196078%, 30.196078%, 30.196078%)" fill-opacity="1">
<use xlink:href="#glyph-0-16" x="301.648438" y="334.898438"/>
<use xlink:href="#glyph-0-17" x="306.9875" y="334.898438"/>
<use xlink:href="#glyph-0-15" x="312.326563" y="334.898438"/>
</g>
<g fill="rgb(30.196078%, 30.196078%, 30.196078%)" fill-opacity="1">
<use xlink:href="#glyph-0-17" x="347.28125" y="334.898438"/>
<use xlink:href="#glyph-0-14" x="352.620313" y="334.898438"/>
<use xlink:href="#glyph-0-15" x="357.959375" y="334.898438"/>
</g>
<g fill="rgb(30.196078%, 30.196078%, 30.196078%)" fill-opacity="1">
<use xlink:href="#glyph-0-18" x="392.914062" y="334.898438"/>
<use xlink:href="#glyph-0-17" x="398.253125" y="334.898438"/>
<use xlink:href="#glyph-0-15" x="403.592188" y="334.898438"/>
</g>
<g fill="rgb(30.196078%, 30.196078%, 30.196078%)" fill-opacity="1">
<use xlink:href="#glyph-0-19" x="435.871094" y="334.898438"/>
<use xlink:href="#glyph-0-14" x="441.210156" y="334.898438"/>
<use xlink:href="#glyph-0-14" x="446.549219" y="334.898438"/>
<use xlink:href="#glyph-0-15" x="451.888281" y="334.898438"/>
</g>
<g fill="rgb(30.196078%, 30.196078%, 30.196078%)" fill-opacity="1">
<use xlink:href="#glyph-0-20" x="12.925781" y="277.804688"/>
<use xlink:href="#glyph-0-9" x="17.725781" y="277.804688"/>
<use xlink:href="#glyph-0-2" x="23.064844" y="277.804688"/>
<use xlink:href="#glyph-0-21" x="26.261719" y="277.804688"/>
<use xlink:href="#glyph-0-1" x="31.600781" y="277.804688"/>
<use xlink:href="#glyph-0-22" x="36.939844" y="277.804688"/>
<use xlink:href="#glyph-0-3" x="42.278906" y="277.804688"/>
</g>
<g fill="rgb(30.196078%, 30.196078%, 30.196078%)" fill-opacity="1">
<use xlink:href="#glyph-0-8" x="13.988281" y="198.179688"/>
<use xlink:href="#glyph-0-9" x="16.121094" y="198.179688"/>
<use xlink:href="#glyph-0-3" x="21.460156" y="198.179688"/>
<use xlink:href="#glyph-0-23" x="24.127344" y="198.179688"/>
<use xlink:href="#glyph-0-3" x="26.260156" y="198.179688"/>
<use xlink:href="#glyph-0-13" x="28.927344" y="198.179688"/>
<use xlink:href="#glyph-0-11" x="34.266406" y="198.179688"/>
<use xlink:href="#glyph-0-24" x="39.605469" y="198.179688"/>
</g>
<g fill="rgb(30.196078%, 30.196078%, 30.196078%)" fill-opacity="1">
<use xlink:href="#glyph-0-8" x="5.976562" y="118.554688"/>
<use xlink:href="#glyph-0-1" x="8.109375" y="118.554688"/>
<use xlink:href="#glyph-0-10" x="13.448438" y="118.554688"/>
<use xlink:href="#glyph-0-21" x="18.7875" y="118.554688"/>
<use xlink:href="#glyph-0-23" x="24.126563" y="118.554688"/>
<use xlink:href="#glyph-0-3" x="26.259375" y="118.554688"/>
<use xlink:href="#glyph-0-13" x="28.926563" y="118.554688"/>
<use xlink:href="#glyph-0-11" x="34.265625" y="118.554688"/>
<use xlink:href="#glyph-0-24" x="39.604687" y="118.554688"/>
</g>
<g fill="rgb(0%, 0%, 0%)" fill-opacity="1">
<use xlink:href="#glyph-1-0" x="186.164062" y="350.496094"/>
<use xlink:href="#glyph-1-1" x="194.167969" y="350.496094"/>
<use xlink:href="#glyph-1-2" x="200.841797" y="350.496094"/>
<use xlink:href="#glyph-1-3" x="204.175781" y="350.496094"/>
<use xlink:href="#glyph-1-1" x="212.841797" y="350.496094"/>
<use xlink:href="#glyph-1-1" x="219.515625" y="350.496094"/>
<use xlink:href="#glyph-1-4" x="226.189453" y="350.496094"/>
<use xlink:href="#glyph-1-5" x="232.863281" y="350.496094"/>
<use xlink:href="#glyph-1-6" x="236.859375" y="350.496094"/>
<use xlink:href="#glyph-1-7" x="242.859375" y="350.496094"/>
<use xlink:href="#glyph-1-8" x="245.525391" y="350.496094"/>
<use xlink:href="#glyph-1-9" x="252.199219" y="350.496094"/>
<use xlink:href="#glyph-1-2" x="258.199219" y="350.496094"/>
<use xlink:href="#glyph-1-1" x="261.533203" y="350.496094"/>
<use xlink:href="#glyph-1-10" x="268.207031" y="350.496094"/>
<use xlink:href="#glyph-1-11" x="272.203125" y="350.496094"/>
<use xlink:href="#glyph-1-12" x="275.537109" y="350.496094"/>
<use xlink:href="#glyph-1-13" x="281.537109" y="350.496094"/>
<use xlink:href="#glyph-1-10" x="288.210938" y="350.496094"/>
<use xlink:href="#glyph-1-14" x="292.207031" y="350.496094"/>
<use xlink:href="#glyph-1-13" x="294.873047" y="350.496094"/>
<use xlink:href="#glyph-1-2" x="301.546875" y="350.496094"/>
<use xlink:href="#glyph-1-14" x="304.880859" y="350.496094"/>
<use xlink:href="#glyph-1-15" x="307.546875" y="350.496094"/>
<use xlink:href="#glyph-1-4" x="314.220703" y="350.496094"/>
</g>
<g fill="rgb(0%, 0%, 0%)" fill-opacity="1">
<use xlink:href="#glyph-1-16" x="474.671875" y="178.769531"/>
<use xlink:href="#glyph-1-8" x="482.675781" y="178.769531"/>
<use xlink:href="#glyph-1-2" x="489.349609" y="178.769531"/>
<use xlink:href="#glyph-1-15" x="492.683594" y="178.769531"/>
<use xlink:href="#glyph-1-17" x="499.357422" y="178.769531"/>
<use xlink:href="#glyph-1-13" x="509.353516" y="178.769531"/>
<use xlink:href="#glyph-1-2" x="516.027344" y="178.769531"/>
<use xlink:href="#glyph-1-14" x="519.361328" y="178.769531"/>
<use xlink:href="#glyph-1-6" x="522.027344" y="178.769531"/>
<use xlink:href="#glyph-1-11" x="528.027344" y="178.769531"/>
<use xlink:href="#glyph-1-17" x="531.361328" y="178.769531"/>
<use xlink:href="#glyph-1-15" x="541.357422" y="178.769531"/>
<use xlink:href="#glyph-1-18" x="548.03125" y="178.769531"/>
<use xlink:href="#glyph-1-1" x="554.705078" y="178.769531"/>
<use xlink:href="#glyph-1-7" x="561.378906" y="178.769531"/>
</g>
<path fill-rule="nonzero" fill="rgb(72.54902%, 76.470588%, 79.215686%)" fill-opacity="1" d="M 475.445312 203.019531 L 491.179688 203.019531 L 491.179688 187.285156 L 475.445312 187.285156 Z M 475.445312 203.019531 "/>
<path fill-rule="nonzero" fill="rgb(8.627451%, 49.019608%, 55.294118%)" fill-opacity="1" d="M 475.445312 220.296875 L 491.179688 220.296875 L 491.179688 204.5625 L 475.445312 204.5625 Z M 475.445312 220.296875 "/>
<g fill="rgb(0%, 0%, 0%)" fill-opacity="1">
<use xlink:href="#glyph-0-0" x="497.929688" y="199.085938"/>
<use xlink:href="#glyph-0-1" x="504.8625" y="199.085938"/>
<use xlink:href="#glyph-0-3" x="510.201563" y="199.085938"/>
<use xlink:href="#glyph-0-5" x="512.86875" y="199.085938"/>
<use xlink:href="#glyph-0-7" x="515.535937" y="199.085938"/>
<use xlink:href="#glyph-0-24" x="520.335937" y="199.085938"/>
<use xlink:href="#glyph-0-8" x="525.675" y="199.085938"/>
<use xlink:href="#glyph-0-24" x="527.807812" y="199.085938"/>
<use xlink:href="#glyph-0-20" x="533.146875" y="199.085938"/>
<use xlink:href="#glyph-0-3" x="537.946875" y="199.085938"/>
<use xlink:href="#glyph-0-24" x="540.614062" y="199.085938"/>
<use xlink:href="#glyph-0-11" x="545.953125" y="199.085938"/>
</g>
<g fill="rgb(0%, 0%, 0%)" fill-opacity="1">
<use xlink:href="#glyph-0-12" x="497.929688" y="216.367188"/>
<use xlink:href="#glyph-0-24" x="504.332812" y="216.367188"/>
<use xlink:href="#glyph-0-8" x="509.671875" y="216.367188"/>
<use xlink:href="#glyph-0-24" x="511.804688" y="216.367188"/>
<use xlink:href="#glyph-0-20" x="517.14375" y="216.367188"/>
<use xlink:href="#glyph-0-3" x="521.94375" y="216.367188"/>
<use xlink:href="#glyph-0-24" x="524.610937" y="216.367188"/>
<use xlink:href="#glyph-0-11" x="529.95" y="216.367188"/>
</g>
<g fill="rgb(32.156863%, 39.607843%, 45.882353%)" fill-opacity="1">
<use xlink:href="#glyph-1-19" x="50.324219" y="36.882812"/>
<use xlink:href="#glyph-1-1" x="58.990234" y="36.882812"/>
<use xlink:href="#glyph-1-7" x="65.664062" y="36.882812"/>
<use xlink:href="#glyph-1-1" x="68.330078" y="36.882812"/>
<use xlink:href="#glyph-1-12" x="75.003906" y="36.882812"/>
<use xlink:href="#glyph-1-13" x="81.003906" y="36.882812"/>
<use xlink:href="#glyph-1-4" x="87.677734" y="36.882812"/>
<use xlink:href="#glyph-1-6" x="94.351562" y="36.882812"/>
<use xlink:href="#glyph-1-1" x="100.351562" y="36.882812"/>
<use xlink:href="#glyph-1-11" x="107.025391" y="36.882812"/>
<use xlink:href="#glyph-1-14" x="110.359375" y="36.882812"/>
<use xlink:href="#glyph-1-9" x="113.025391" y="36.882812"/>
<use xlink:href="#glyph-1-11" x="119.025391" y="36.882812"/>
<use xlink:href="#glyph-1-2" x="122.359375" y="36.882812"/>
<use xlink:href="#glyph-1-20" x="125.693359" y="36.882812"/>
<use xlink:href="#glyph-1-1" x="132.367188" y="36.882812"/>
<use xlink:href="#glyph-1-11" x="139.041016" y="36.882812"/>
<use xlink:href="#glyph-1-9" x="142.375" y="36.882812"/>
<use xlink:href="#glyph-1-20" x="148.375" y="36.882812"/>
<use xlink:href="#glyph-1-13" x="155.048828" y="36.882812"/>
<use xlink:href="#glyph-1-10" x="161.722656" y="36.882812"/>
<use xlink:href="#glyph-1-1" x="165.71875" y="36.882812"/>
<use xlink:href="#glyph-1-11" x="172.392578" y="36.882812"/>
<use xlink:href="#glyph-1-15" x="175.726562" y="36.882812"/>
<use xlink:href="#glyph-1-21" x="182.400391" y="36.882812"/>
<use xlink:href="#glyph-1-11" x="185.734375" y="36.882812"/>
<use xlink:href="#glyph-1-1" x="189.068359" y="36.882812"/>
<use xlink:href="#glyph-1-13" x="195.742188" y="36.882812"/>
<use xlink:href="#glyph-1-6" x="202.416016" y="36.882812"/>
<use xlink:href="#glyph-1-20" x="208.416016" y="36.882812"/>
<use xlink:href="#glyph-1-11" x="215.089844" y="36.882812"/>
<use xlink:href="#glyph-1-12" x="218.423828" y="36.882812"/>
<use xlink:href="#glyph-1-13" x="224.423828" y="36.882812"/>
<use xlink:href="#glyph-1-10" x="231.097656" y="36.882812"/>
<use xlink:href="#glyph-1-14" x="235.09375" y="36.882812"/>
<use xlink:href="#glyph-1-13" x="237.759766" y="36.882812"/>
<use xlink:href="#glyph-1-22" x="244.433594" y="36.882812"/>
<use xlink:href="#glyph-1-7" x="251.107422" y="36.882812"/>
<use xlink:href="#glyph-1-1" x="253.773438" y="36.882812"/>
<use xlink:href="#glyph-1-23" x="260.447266" y="36.882812"/>
<use xlink:href="#glyph-1-9" x="262.738281" y="36.882812"/>
<use xlink:href="#glyph-1-11" x="268.738281" y="36.882812"/>
<use xlink:href="#glyph-1-12" x="272.072266" y="36.882812"/>
<use xlink:href="#glyph-1-13" x="278.072266" y="36.882812"/>
<use xlink:href="#glyph-1-10" x="284.746094" y="36.882812"/>
<use xlink:href="#glyph-1-14" x="288.742188" y="36.882812"/>
<use xlink:href="#glyph-1-13" x="291.408203" y="36.882812"/>
<use xlink:href="#glyph-1-2" x="298.082031" y="36.882812"/>
<use xlink:href="#glyph-1-14" x="301.416016" y="36.882812"/>
<use xlink:href="#glyph-1-15" x="304.082031" y="36.882812"/>
<use xlink:href="#glyph-1-4" x="310.755859" y="36.882812"/>
<use xlink:href="#glyph-1-11" x="317.429688" y="36.882812"/>
<use xlink:href="#glyph-1-1" x="320.763672" y="36.882812"/>
<use xlink:href="#glyph-1-24" x="327.4375" y="36.882812"/>
<use xlink:href="#glyph-1-25" x="333.4375" y="36.882812"/>
<use xlink:href="#glyph-1-7" x="340.111328" y="36.882812"/>
<use xlink:href="#glyph-1-13" x="342.777344" y="36.882812"/>
<use xlink:href="#glyph-1-14" x="349.451172" y="36.882812"/>
<use xlink:href="#glyph-1-4" x="352.117188" y="36.882812"/>
<use xlink:href="#glyph-1-1" x="358.791016" y="36.882812"/>
<use xlink:href="#glyph-1-18" x="365.464844" y="36.882812"/>
<use xlink:href="#glyph-1-11" x="372.138672" y="36.882812"/>
<use xlink:href="#glyph-1-22" x="375.472656" y="36.882812"/>
<use xlink:href="#glyph-1-26" x="382.146484" y="36.882812"/>
<use xlink:href="#glyph-1-11" x="388.146484" y="36.882812"/>
<use xlink:href="#glyph-1-6" x="391.480469" y="36.882812"/>
<use xlink:href="#glyph-1-7" x="397.480469" y="36.882812"/>
<use xlink:href="#glyph-1-8" x="400.146484" y="36.882812"/>
<use xlink:href="#glyph-1-9" x="406.820312" y="36.882812"/>
<use xlink:href="#glyph-1-2" x="412.820312" y="36.882812"/>
<use xlink:href="#glyph-1-1" x="416.154297" y="36.882812"/>
<use xlink:href="#glyph-1-10" x="422.828125" y="36.882812"/>
<use xlink:href="#glyph-1-11" x="426.824219" y="36.882812"/>
<use xlink:href="#glyph-1-17" x="430.158203" y="36.882812"/>
<use xlink:href="#glyph-1-1" x="440.154297" y="36.882812"/>
<use xlink:href="#glyph-1-17" x="446.828125" y="36.882812"/>
<use xlink:href="#glyph-1-22" x="456.824219" y="36.882812"/>
<use xlink:href="#glyph-1-1" x="463.498047" y="36.882812"/>
<use xlink:href="#glyph-1-10" x="470.171875" y="36.882812"/>
<use xlink:href="#glyph-1-9" x="474.167969" y="36.882812"/>
<use xlink:href="#glyph-1-20" x="480.167969" y="36.882812"/>
<use xlink:href="#glyph-1-14" x="486.841797" y="36.882812"/>
<use xlink:href="#glyph-1-25" x="489.507812" y="36.882812"/>
</g>
<g fill="rgb(9.019608%, 23.137255%, 34.117647%)" fill-opacity="1">
<use xlink:href="#glyph-2-0" x="50.324219" y="17.285156"/>
<use xlink:href="#glyph-2-1" x="59.928906" y="17.285156"/>
<use xlink:href="#glyph-2-2" x="67.9375" y="17.285156"/>
<use xlink:href="#glyph-2-3" x="73.541406" y="17.285156"/>
<use xlink:href="#glyph-2-1" x="77.542187" y="17.285156"/>
<use xlink:href="#glyph-2-4" x="85.550781" y="17.285156"/>
<use xlink:href="#glyph-2-5" x="94.346875" y="17.285156"/>
<use xlink:href="#glyph-2-6" x="98.347656" y="17.285156"/>
<use xlink:href="#glyph-2-7" x="106.35625" y="17.285156"/>
<use xlink:href="#glyph-2-8" x="114.364844" y="17.285156"/>
<use xlink:href="#glyph-2-9" x="118.365625" y="17.285156"/>
<use xlink:href="#glyph-2-6" x="127.161719" y="17.285156"/>
<use xlink:href="#glyph-2-10" x="135.170312" y="17.285156"/>
<use xlink:href="#glyph-2-3" x="139.965625" y="17.285156"/>
<use xlink:href="#glyph-2-11" x="143.966406" y="17.285156"/>
<use xlink:href="#glyph-2-3" x="152.7625" y="17.285156"/>
<use xlink:href="#glyph-2-11" x="156.763281" y="17.285156"/>
<use xlink:href="#glyph-2-12" x="165.559375" y="17.285156"/>
<use xlink:href="#glyph-2-8" x="174.355469" y="17.285156"/>
<use xlink:href="#glyph-2-13" x="178.35625" y="17.285156"/>
<use xlink:href="#glyph-2-14" x="183.151562" y="17.285156"/>
<use xlink:href="#glyph-2-6" x="191.947656" y="17.285156"/>
<use xlink:href="#glyph-2-8" x="199.95625" y="17.285156"/>
<use xlink:href="#glyph-2-7" x="203.957031" y="17.285156"/>
<use xlink:href="#glyph-2-6" x="211.965625" y="17.285156"/>
<use xlink:href="#glyph-2-5" x="219.974219" y="17.285156"/>
<use xlink:href="#glyph-2-6" x="223.975" y="17.285156"/>
<use xlink:href="#glyph-2-15" x="231.983594" y="17.285156"/>
<use xlink:href="#glyph-2-13" x="239.992187" y="17.285156"/>
<use xlink:href="#glyph-2-6" x="244.7875" y="17.285156"/>
<use xlink:href="#glyph-2-9" x="252.796094" y="17.285156"/>
<use xlink:href="#glyph-2-8" x="261.592187" y="17.285156"/>
<use xlink:href="#glyph-2-15" x="265.592969" y="17.285156"/>
<use xlink:href="#glyph-2-5" x="273.601562" y="17.285156"/>
<use xlink:href="#glyph-2-16" x="277.602344" y="17.285156"/>
<use xlink:href="#glyph-2-7" x="286.398437" y="17.285156"/>
<use xlink:href="#glyph-2-13" x="294.407031" y="17.285156"/>
<use xlink:href="#glyph-2-6" x="299.202344" y="17.285156"/>
<use xlink:href="#glyph-2-2" x="307.210937" y="17.285156"/>
<use xlink:href="#glyph-2-7" x="312.814844" y="17.285156"/>
</g>
</svg>
